<svg width="505" height="63" viewBox="0 0 505 63" fill="none" xmlns="http://www.w3.org/2000/svg">
<path d="M1 49H504" stroke="#D0D0D1" stroke-width="0.4" stroke-linecap="square"/>
<path d="M3.996 37.408V38.176H7.908C7.14 38.92 5.712 39.58 3.636 40.156L4.116 40.936C6.252 40.204 7.74 39.34 8.592 38.344V41.2H9.432V38.296C10.344 39.376 11.856 40.264 13.956 40.936L14.34 40.132C12.468 39.652 11.076 39.004 10.164 38.176H13.992V37.408H9.432V36.592H8.592V37.408H3.996ZM8.34 30.16V32.356H5.232V36.244H12.804V32.356H9.168V31.576H13.596V30.832H9.168V30.16H8.34ZM11.988 35.512H6.048V34.648H11.988V35.512ZM6.048 33.94V33.088H11.988V33.94H6.048ZM15.66 30.676V31.516H20.652C20.556 32.044 20.4 32.548 20.208 33.052H16.344V41.236H17.172V40.636H24.864V41.236H25.692V33.052H21.084C21.276 32.56 21.432 32.044 21.528 31.516H26.34V30.676H15.66ZM17.172 39.844V33.832H18.828V39.844H17.172ZM19.632 39.844V38.308H22.368V39.844H19.632ZM23.172 39.844V33.832H24.864V39.844H23.172ZM19.632 37.552V36.088H22.368V37.552H19.632ZM19.632 35.32V33.832H22.368V35.32H19.632ZM27.516 32.2V33.016H31.308V32.2H29.904C29.736 31.504 29.568 30.88 29.4 30.34L28.536 30.484C28.74 31 28.92 31.576 29.088 32.2H27.516ZM28.5 33.724L27.792 33.952C28.068 35.452 28.296 37.012 28.476 38.632L29.184 38.452C28.98 36.676 28.752 35.092 28.5 33.724ZM31.296 38.56C30.984 38.68 30.648 38.788 30.312 38.908C30.6 37.3 30.828 35.56 30.972 33.676L30.192 33.568C30.06 35.536 29.856 37.384 29.568 39.136C28.896 39.328 28.2 39.484 27.492 39.604L27.708 40.456C28.992 40.168 30.192 39.82 31.296 39.388V38.56ZM36.996 32.524H35.364V30.22H34.524V32.524H32.928V30.688H32.1V33.28H37.812V30.688H36.996V32.524ZM31.584 34.288V35.08H34.404C34.332 35.476 34.212 35.86 34.068 36.232H31.932V41.152H32.712V37H33.768V40.972H34.5V37H35.472V40.96H36.204V37H37.284V40.084C37.284 40.3 37.2 40.408 37.044 40.408L36.552 40.372L36.756 41.152H37.308C37.812 41.152 38.064 40.852 38.064 40.252V36.232H34.908C35.052 35.86 35.172 35.476 35.256 35.08H38.412V34.288H31.584Z" fill="#276EF9"/>
<path opacity="0.8" d="M137.26 33.432C136.972 33.756 136.636 34.044 136.228 34.308C135.82 34.548 135.412 34.716 135.028 34.824V35.808C135.832 35.568 136.504 35.184 137.044 34.632V42H138.028V33.432H137.26ZM143.036 33.264C142.064 33.264 141.296 33.708 140.732 34.608C140.192 35.46 139.928 36.576 139.928 37.944C139.928 39.252 140.168 40.272 140.672 41.004C141.2 41.772 141.98 42.168 143.024 42.168C143.864 42.168 144.548 41.88 145.1 41.328C145.64 40.776 145.916 40.068 145.916 39.228C145.916 38.388 145.664 37.716 145.172 37.188C144.668 36.66 144.008 36.396 143.192 36.396C142.688 36.396 142.244 36.516 141.86 36.768C141.452 37.008 141.152 37.356 140.936 37.8H140.888C140.876 37.644 140.876 37.536 140.876 37.488C140.876 36.516 141.056 35.712 141.44 35.088C141.824 34.416 142.352 34.092 143.024 34.092C144.02 34.092 144.608 34.572 144.8 35.556H145.772C145.532 34.02 144.62 33.264 143.036 33.264ZM143 37.212C143.588 37.212 144.056 37.392 144.416 37.776C144.764 38.136 144.944 38.616 144.944 39.228C144.944 39.84 144.764 40.344 144.404 40.752C144.044 41.136 143.576 41.34 143 41.34C142.4 41.34 141.932 41.136 141.572 40.728C141.212 40.344 141.044 39.852 141.044 39.252C141.044 38.652 141.224 38.172 141.596 37.788C141.968 37.404 142.436 37.212 143 37.212ZM154.216 35.628C153.28 35.628 152.596 36.024 152.152 36.816V35.796H151.252V44.376H152.212V40.872C152.692 41.736 153.376 42.168 154.264 42.168C155.152 42.168 155.836 41.832 156.34 41.184C156.796 40.584 157.036 39.828 157.036 38.916C157.036 37.98 156.796 37.224 156.328 36.624C155.812 35.952 155.104 35.628 154.216 35.628ZM154.096 36.42C154.756 36.42 155.26 36.66 155.608 37.164C155.896 37.596 156.052 38.184 156.052 38.916C156.052 39.66 155.896 40.248 155.584 40.68C155.236 41.136 154.732 41.376 154.06 41.376C153.484 41.376 153.04 41.148 152.704 40.716C152.344 40.272 152.176 39.696 152.176 38.976V38.856C152.176 38.16 152.332 37.584 152.644 37.152C152.98 36.66 153.472 36.42 154.096 36.42ZM157.863 35.796L160.059 38.712L157.599 42H158.739L160.599 39.42L162.447 42H163.587L161.127 38.712L163.323 35.796H162.195L160.599 38.004L158.991 35.796H157.863Z" fill="black"/>
<path opacity="0.8" d="M318.26 33.432C317.972 33.756 317.636 34.044 317.228 34.308C316.82 34.548 316.412 34.716 316.028 34.824V35.808C316.832 35.568 317.504 35.184 318.044 34.632V42H319.028V33.432H318.26ZM324.036 33.264C323.172 33.264 322.464 33.552 321.936 34.128C321.408 34.692 321.132 35.46 321.132 36.42H322.116C322.128 35.664 322.308 35.088 322.644 34.704C322.956 34.296 323.412 34.104 324 34.104C324.552 34.104 324.996 34.248 325.308 34.536C325.62 34.824 325.776 35.22 325.776 35.748C325.776 36.3 325.548 36.816 325.116 37.284C324.888 37.524 324.444 37.872 323.772 38.352C322.86 38.976 322.248 39.492 321.912 39.876C321.336 40.512 321.06 41.22 321.06 42H326.772V41.124H322.272C322.428 40.548 323.052 39.888 324.144 39.156C325.032 38.556 325.62 38.088 325.92 37.776C326.472 37.176 326.76 36.504 326.76 35.76C326.76 35.016 326.496 34.404 325.992 33.948C325.476 33.492 324.828 33.264 324.036 33.264Z" fill="black"/>
<path opacity="0.8" d="M227.26 33.432C226.972 33.756 226.636 34.044 226.228 34.308C225.82 34.548 225.412 34.716 225.028 34.824V35.808C225.832 35.568 226.504 35.184 227.044 34.632V42H228.028V33.432H227.26ZM233.036 33.264C232.064 33.264 231.296 33.708 230.732 34.608C230.192 35.46 229.928 36.576 229.928 37.944C229.928 39.252 230.168 40.272 230.672 41.004C231.2 41.772 231.98 42.168 233.024 42.168C233.864 42.168 234.548 41.88 235.1 41.328C235.64 40.776 235.916 40.068 235.916 39.228C235.916 38.388 235.664 37.716 235.172 37.188C234.668 36.66 234.008 36.396 233.192 36.396C232.688 36.396 232.244 36.516 231.86 36.768C231.452 37.008 231.152 37.356 230.936 37.8H230.888C230.876 37.644 230.876 37.536 230.876 37.488C230.876 36.516 231.056 35.712 231.44 35.088C231.824 34.416 232.352 34.092 233.024 34.092C234.02 34.092 234.608 34.572 234.8 35.556H235.772C235.532 34.02 234.62 33.264 233.036 33.264ZM233 37.212C233.588 37.212 234.056 37.392 234.416 37.776C234.764 38.136 234.944 38.616 234.944 39.228C234.944 39.84 234.764 40.344 234.404 40.752C234.044 41.136 233.576 41.34 233 41.34C232.4 41.34 231.932 41.136 231.572 40.728C231.212 40.344 231.044 39.852 231.044 39.252C231.044 38.652 231.224 38.172 231.596 37.788C231.968 37.404 232.436 37.212 233 37.212ZM244.216 35.628C243.28 35.628 242.596 36.024 242.152 36.816V35.796H241.252V44.376H242.212V40.872C242.692 41.736 243.376 42.168 244.264 42.168C245.152 42.168 245.836 41.832 246.34 41.184C246.796 40.584 247.036 39.828 247.036 38.916C247.036 37.98 246.796 37.224 246.328 36.624C245.812 35.952 245.104 35.628 244.216 35.628ZM244.096 36.42C244.756 36.42 245.26 36.66 245.608 37.164C245.896 37.596 246.052 38.184 246.052 38.916C246.052 39.66 245.896 40.248 245.584 40.68C245.236 41.136 244.732 41.376 244.06 41.376C243.484 41.376 243.04 41.148 242.704 40.716C242.344 40.272 242.176 39.696 242.176 38.976V38.856C242.176 38.16 242.332 37.584 242.644 37.152C242.98 36.66 243.472 36.42 244.096 36.42ZM247.863 35.796L250.059 38.712L247.599 42H248.739L250.599 39.42L252.447 42H253.587L251.127 38.712L253.323 35.796H252.195L250.599 38.004L248.991 35.796H247.863Z" fill="black"/>
<path opacity="0.8" d="M416.76 33.432C416.472 33.756 416.136 34.044 415.728 34.308C415.32 34.548 414.912 34.716 414.528 34.824V35.808C415.332 35.568 416.004 35.184 416.544 34.632V42H417.528V33.432H416.76ZM422.536 33.264C421.672 33.264 420.964 33.552 420.436 34.128C419.908 34.692 419.632 35.46 419.632 36.42H420.616C420.628 35.664 420.808 35.088 421.144 34.704C421.456 34.296 421.912 34.104 422.5 34.104C423.052 34.104 423.496 34.248 423.808 34.536C424.12 34.824 424.276 35.22 424.276 35.748C424.276 36.3 424.048 36.816 423.616 37.284C423.388 37.524 422.944 37.872 422.272 38.352C421.36 38.976 420.748 39.492 420.412 39.876C419.836 40.512 419.56 41.22 419.56 42H425.272V41.124H420.772C420.928 40.548 421.552 39.888 422.644 39.156C423.532 38.556 424.12 38.088 424.42 37.776C424.972 37.176 425.26 36.504 425.26 35.76C425.26 35.016 424.996 34.404 424.492 33.948C423.976 33.492 423.328 33.264 422.536 33.264ZM429.612 33.264C428.712 33.264 428.016 33.492 427.512 33.96C427.044 34.38 426.816 34.908 426.816 35.532C426.816 35.988 426.924 36.372 427.14 36.684C427.368 37.02 427.704 37.272 428.16 37.428V37.452C427.704 37.56 427.332 37.812 427.02 38.196C426.684 38.604 426.516 39.084 426.516 39.636C426.516 40.392 426.78 41.004 427.308 41.46C427.848 41.928 428.616 42.168 429.612 42.168C430.596 42.168 431.364 41.928 431.916 41.46C432.444 41.004 432.708 40.392 432.708 39.636C432.708 39.084 432.54 38.604 432.204 38.196C431.892 37.812 431.508 37.56 431.064 37.452V37.428C431.508 37.272 431.844 37.02 432.084 36.684C432.3 36.372 432.408 35.988 432.408 35.532C432.408 34.908 432.168 34.38 431.712 33.96C431.208 33.492 430.5 33.264 429.612 33.264ZM429.612 34.068C430.212 34.068 430.692 34.224 431.04 34.536C431.328 34.8 431.484 35.148 431.484 35.568C431.484 36 431.352 36.36 431.088 36.624C430.764 36.936 430.272 37.104 429.612 37.104C428.94 37.104 428.448 36.936 428.136 36.624C427.872 36.36 427.74 36 427.74 35.568C427.74 35.148 427.884 34.8 428.184 34.536C428.52 34.224 429 34.068 429.612 34.068ZM429.612 37.872C430.296 37.872 430.836 38.04 431.22 38.388C431.556 38.7 431.736 39.12 431.736 39.636C431.736 40.14 431.556 40.548 431.22 40.86C430.836 41.196 430.308 41.364 429.612 41.364C428.916 41.364 428.376 41.196 428.016 40.872C427.656 40.56 427.488 40.14 427.488 39.636C427.488 39.12 427.656 38.7 428.016 38.388C428.388 38.04 428.916 37.872 429.612 37.872ZM436.807 33.264C435.775 33.264 435.007 33.708 434.491 34.62C434.035 35.388 433.807 36.42 433.807 37.716C433.807 39.012 434.035 40.044 434.491 40.812C435.007 41.712 435.775 42.168 436.807 42.168C437.827 42.168 438.595 41.712 439.123 40.812C439.579 40.044 439.807 39.012 439.807 37.716C439.807 36.42 439.579 35.388 439.123 34.62C438.595 33.708 437.827 33.264 436.807 33.264ZM436.807 34.104C437.575 34.104 438.127 34.512 438.463 35.34C438.703 35.916 438.835 36.708 438.835 37.716C438.835 38.712 438.703 39.504 438.463 40.092C438.127 40.908 437.575 41.328 436.807 41.328C436.039 41.328 435.487 40.908 435.151 40.092C434.911 39.504 434.791 38.712 434.791 37.716C434.791 36.708 434.911 35.916 435.151 35.34C435.487 34.512 436.039 34.104 436.807 34.104ZM441.002 37.188V38.172H449.69V37.188H441.002ZM453.053 33.432C452.765 33.756 452.429 34.044 452.021 34.308C451.613 34.548 451.205 34.716 450.821 34.824V35.808C451.625 35.568 452.297 35.184 452.837 34.632V42H453.821V33.432H453.053ZM458.613 33.264C457.773 33.264 457.077 33.54 456.537 34.104C455.985 34.656 455.721 35.352 455.721 36.204C455.721 37.032 455.961 37.704 456.453 38.22C456.957 38.76 457.617 39.036 458.445 39.036C458.949 39.036 459.393 38.904 459.777 38.664C460.173 38.412 460.485 38.064 460.701 37.632H460.749C460.749 37.776 460.761 37.884 460.761 37.944C460.761 38.904 460.569 39.708 460.197 40.344C459.801 41.004 459.273 41.34 458.613 41.34C457.605 41.34 457.017 40.848 456.837 39.876H455.865C456.093 41.4 457.005 42.168 458.601 42.168C459.561 42.168 460.329 41.712 460.905 40.824C461.433 39.96 461.709 38.856 461.709 37.488C461.709 36.168 461.457 35.136 460.953 34.416C460.425 33.648 459.645 33.264 458.613 33.264ZM458.637 34.092C459.225 34.092 459.705 34.296 460.065 34.704C460.413 35.088 460.593 35.58 460.593 36.18C460.593 36.768 460.401 37.26 460.041 37.644C459.657 38.028 459.189 38.22 458.637 38.22C458.037 38.22 457.569 38.028 457.221 37.656C456.861 37.296 456.693 36.804 456.693 36.204C456.693 35.58 456.861 35.076 457.221 34.68C457.581 34.284 458.049 34.092 458.637 34.092ZM466.025 33.264C465.161 33.264 464.453 33.552 463.925 34.128C463.397 34.692 463.121 35.46 463.121 36.42H464.105C464.117 35.664 464.297 35.088 464.633 34.704C464.945 34.296 465.401 34.104 465.989 34.104C466.541 34.104 466.985 34.248 467.297 34.536C467.609 34.824 467.765 35.22 467.765 35.748C467.765 36.3 467.537 36.816 467.105 37.284C466.877 37.524 466.433 37.872 465.761 38.352C464.849 38.976 464.237 39.492 463.901 39.876C463.325 40.512 463.049 41.22 463.049 42H468.761V41.124H464.261C464.417 40.548 465.041 39.888 466.133 39.156C467.021 38.556 467.609 38.088 467.909 37.776C468.461 37.176 468.749 36.504 468.749 35.76C468.749 35.016 468.485 34.404 467.981 33.948C467.465 33.492 466.817 33.264 466.025 33.264ZM473.1 33.264C472.068 33.264 471.3 33.708 470.784 34.62C470.328 35.388 470.1 36.42 470.1 37.716C470.1 39.012 470.328 40.044 470.784 40.812C471.3 41.712 472.068 42.168 473.1 42.168C474.12 42.168 474.888 41.712 475.416 40.812C475.872 40.044 476.1 39.012 476.1 37.716C476.1 36.42 475.872 35.388 475.416 34.62C474.888 33.708 474.12 33.264 473.1 33.264ZM473.1 34.104C473.868 34.104 474.42 34.512 474.756 35.34C474.996 35.916 475.128 36.708 475.128 37.716C475.128 38.712 474.996 39.504 474.756 40.092C474.42 40.908 473.868 41.328 473.1 41.328C472.332 41.328 471.78 40.908 471.444 40.092C471.204 39.504 471.084 38.712 471.084 37.716C471.084 36.708 471.204 35.916 471.444 35.34C471.78 34.512 472.332 34.104 473.1 34.104ZM480.403 35.628C479.467 35.628 478.783 36.024 478.339 36.816V35.796H477.439V44.376H478.399V40.872C478.879 41.736 479.563 42.168 480.451 42.168C481.339 42.168 482.023 41.832 482.527 41.184C482.983 40.584 483.223 39.828 483.223 38.916C483.223 37.98 482.983 37.224 482.515 36.624C481.999 35.952 481.291 35.628 480.403 35.628ZM480.283 36.42C480.943 36.42 481.447 36.66 481.795 37.164C482.083 37.596 482.239 38.184 482.239 38.916C482.239 39.66 482.083 40.248 481.771 40.68C481.423 41.136 480.919 41.376 480.247 41.376C479.671 41.376 479.227 41.148 478.891 40.716C478.531 40.272 478.363 39.696 478.363 38.976V38.856C478.363 38.16 478.519 37.584 478.831 37.152C479.167 36.66 479.659 36.42 480.283 36.42ZM484.051 35.796L486.247 38.712L483.787 42H484.927L486.787 39.42L488.635 42H489.775L487.315 38.712L489.511 35.796H488.383L486.787 38.004L485.179 35.796H484.051Z" fill="black"/>
<g clip-path="url(#clip0_1426_18655)">
<path opacity="0.8" d="M135.364 4.432V13H136.348V6.184H136.384L139.348 13H140.236L143.2 6.184H143.236V13H144.22V4.432H142.996L139.816 11.74H139.78L136.588 4.432H135.364ZM148.526 6.628C147.782 6.628 147.194 6.772 146.738 7.06C146.234 7.372 145.91 7.864 145.778 8.512L146.726 8.584C146.822 8.188 147.026 7.888 147.35 7.696C147.638 7.504 148.01 7.42 148.466 7.42C149.546 7.42 150.086 7.936 150.086 8.98V9.304L148.598 9.328C147.662 9.34 146.942 9.52 146.438 9.856C145.862 10.216 145.586 10.744 145.586 11.452C145.586 11.956 145.778 12.376 146.162 12.7C146.534 13.012 147.026 13.168 147.65 13.168C148.226 13.168 148.742 13.036 149.198 12.784C149.582 12.568 149.906 12.292 150.146 11.956V13H151.046V9.016C151.046 8.296 150.854 7.732 150.494 7.324C150.062 6.856 149.414 6.628 148.526 6.628ZM150.086 10.024V10.552C150.086 11.032 149.858 11.464 149.414 11.836C148.958 12.22 148.442 12.412 147.854 12.412C147.47 12.412 147.158 12.316 146.918 12.136C146.678 11.944 146.57 11.716 146.57 11.428C146.57 10.528 147.266 10.072 148.658 10.048L150.086 10.024ZM155.253 6.628C154.821 6.628 154.449 6.76 154.125 7.024C153.861 7.228 153.645 7.516 153.477 7.876V6.796H152.529V13H153.477V9.712C153.477 9.136 153.633 8.644 153.969 8.236C154.293 7.804 154.701 7.6 155.181 7.6C155.481 7.6 155.793 7.636 156.105 7.732V6.772C155.877 6.676 155.589 6.628 155.253 6.628ZM159.468 6.628C158.604 6.628 157.92 6.928 157.416 7.54C156.912 8.116 156.672 8.848 156.672 9.76C156.672 10.66 156.912 11.392 157.416 11.968C157.92 12.556 158.604 12.856 159.468 12.856C160.404 12.856 161.1 12.436 161.556 11.608V12.7C161.556 14.068 160.932 14.764 159.684 14.764C159.12 14.764 158.7 14.656 158.424 14.452C158.148 14.26 157.968 13.948 157.896 13.528H156.936C157.044 14.2 157.32 14.704 157.764 15.04C158.196 15.376 158.844 15.544 159.684 15.544C161.568 15.544 162.516 14.548 162.516 12.568V6.796H161.556V7.864C161.1 7.036 160.404 6.628 159.468 6.628ZM159.612 7.42C160.224 7.42 160.704 7.636 161.064 8.092C161.4 8.5 161.568 9.064 161.568 9.76C161.568 10.432 161.4 10.984 161.064 11.404C160.704 11.836 160.224 12.052 159.6 12.052C158.928 12.052 158.436 11.812 158.1 11.356C157.8 10.948 157.656 10.408 157.656 9.76C157.656 9.064 157.824 8.5 158.16 8.092C158.508 7.636 158.988 7.42 159.612 7.42ZM164.794 4.456C164.59 4.456 164.422 4.516 164.278 4.66C164.134 4.78 164.074 4.948 164.074 5.164C164.074 5.368 164.134 5.536 164.278 5.68C164.422 5.812 164.59 5.884 164.794 5.884C164.998 5.884 165.166 5.812 165.31 5.68C165.454 5.536 165.526 5.368 165.526 5.164C165.526 4.948 165.454 4.78 165.31 4.66C165.166 4.516 164.998 4.456 164.794 4.456ZM164.314 6.796V13H165.274V6.796H164.314ZM169.976 6.628C169.568 6.628 169.196 6.724 168.86 6.916C168.524 7.096 168.248 7.36 168.032 7.708V6.796H167.072V13H168.032V9.256C168.068 8.692 168.248 8.248 168.584 7.912C168.896 7.6 169.268 7.444 169.7 7.444C170.78 7.444 171.332 8.044 171.332 9.256V13H172.292V9.184C172.292 7.48 171.512 6.628 169.976 6.628ZM179.487 3.076C178.959 3.844 178.551 4.672 178.251 5.548C177.891 6.58 177.723 7.624 177.723 8.692C177.723 9.736 177.891 10.78 178.251 11.812C178.551 12.676 178.959 13.504 179.487 14.284H180.327C179.835 13.48 179.451 12.652 179.187 11.8C178.827 10.744 178.659 9.7 178.659 8.68C178.659 7.648 178.827 6.616 179.187 5.56C179.451 4.696 179.835 3.868 180.327 3.076H179.487ZM184.395 4.432L181.023 13H182.079L182.991 10.6H186.927L187.839 13H188.907L185.535 4.432H184.395ZM183.303 9.772L184.947 5.488H184.995L186.615 9.772H183.303ZM189.606 3.076C190.086 3.868 190.47 4.696 190.746 5.56C191.094 6.616 191.274 7.648 191.274 8.68C191.274 9.7 191.094 10.744 190.746 11.8C190.47 12.652 190.086 13.48 189.606 14.284H190.446C190.962 13.504 191.37 12.676 191.682 11.812C192.03 10.78 192.21 9.736 192.21 8.692C192.21 7.624 192.03 6.58 191.682 5.548C191.37 4.672 190.962 3.844 190.446 3.076H189.606Z" fill="black"/>
</g>
<g clip-path="url(#clip1_1426_18655)">
<path opacity="0.8" d="M229.024 4.264C227.764 4.264 226.768 4.708 226.036 5.608C225.34 6.436 225.004 7.48 225.004 8.752C225.004 10.024 225.352 11.068 226.048 11.872C226.792 12.736 227.848 13.168 229.204 13.168C229.912 13.168 230.572 13.072 231.196 12.88C231.784 12.688 232.288 12.436 232.696 12.1V8.596H229.036V9.448H231.724V11.632C231.424 11.824 231.064 11.992 230.644 12.112C230.212 12.232 229.768 12.304 229.3 12.304C228.184 12.304 227.344 11.968 226.78 11.308C226.252 10.684 225.988 9.832 225.988 8.752C225.988 7.648 226.252 6.772 226.804 6.124C227.356 5.464 228.088 5.14 229.024 5.14C229.78 5.14 230.392 5.32 230.86 5.692C231.304 6.04 231.592 6.532 231.724 7.18H232.708C232.552 6.244 232.18 5.536 231.58 5.044C230.944 4.516 230.092 4.264 229.024 4.264ZM234.221 6.796V10.636C234.221 12.316 234.965 13.168 236.477 13.168C237.317 13.168 237.989 12.784 238.493 12.04V13H239.453V6.796H238.493V10.576C238.421 11.104 238.217 11.536 237.881 11.872C237.557 12.184 237.185 12.352 236.777 12.352C236.213 12.352 235.805 12.196 235.553 11.908C235.301 11.62 235.181 11.176 235.181 10.588V6.796H234.221ZM242.591 4.792L241.643 5.188V6.796H240.395V7.6H241.643V11.548C241.643 12.016 241.739 12.364 241.943 12.604C242.159 12.868 242.531 13 243.035 13H243.971V12.196H243.179C242.963 12.196 242.807 12.136 242.723 12.04C242.627 11.944 242.591 11.776 242.591 11.548V7.6H244.127V6.796H242.591V4.792ZM246.857 4.792L245.909 5.188V6.796H244.661V7.6H245.909V11.548C245.909 12.016 246.005 12.364 246.209 12.604C246.425 12.868 246.797 13 247.301 13H248.237V12.196H247.445C247.229 12.196 247.073 12.136 246.989 12.04C246.893 11.944 246.857 11.776 246.857 11.548V7.6H248.393V6.796H246.857V4.792ZM252.023 6.628C251.123 6.628 250.415 6.952 249.887 7.6C249.359 8.212 249.107 8.98 249.107 9.892C249.107 10.9 249.371 11.692 249.923 12.292C250.451 12.868 251.171 13.168 252.059 13.168C252.863 13.168 253.523 12.928 254.039 12.472C254.459 12.088 254.735 11.608 254.879 11.008H253.919C253.763 11.44 253.559 11.764 253.295 11.98C252.983 12.232 252.563 12.364 252.059 12.364C251.471 12.364 251.003 12.172 250.667 11.788C250.331 11.404 250.151 10.864 250.103 10.168H254.999C254.975 9.088 254.735 8.236 254.279 7.636C253.775 6.964 253.019 6.628 252.023 6.628ZM252.047 7.432C253.223 7.432 253.883 8.092 254.003 9.424H250.127C250.187 8.812 250.379 8.332 250.715 7.972C251.051 7.612 251.495 7.432 252.047 7.432ZM258.847 6.628C258.415 6.628 258.043 6.76 257.719 7.024C257.455 7.228 257.239 7.516 257.071 7.876V6.796H256.123V13H257.071V9.712C257.071 9.136 257.227 8.644 257.563 8.236C257.887 7.804 258.295 7.6 258.775 7.6C259.075 7.6 259.387 7.636 259.699 7.732V6.772C259.471 6.676 259.183 6.628 258.847 6.628ZM266.218 3.076C265.69 3.844 265.282 4.672 264.982 5.548C264.622 6.58 264.454 7.624 264.454 8.692C264.454 9.736 264.622 10.78 264.982 11.812C265.282 12.676 265.69 13.504 266.218 14.284H267.058C266.566 13.48 266.182 12.652 265.918 11.8C265.558 10.744 265.39 9.7 265.39 8.68C265.39 7.648 265.558 6.616 265.918 5.56C266.182 4.696 266.566 3.868 267.058 3.076H266.218ZM268.618 4.432V13H272.422C273.298 13 273.994 12.82 274.498 12.484C275.086 12.076 275.386 11.452 275.386 10.612C275.386 10.036 275.218 9.58 274.906 9.22C274.594 8.86 274.162 8.62 273.598 8.524C274.03 8.38 274.378 8.152 274.642 7.84C274.894 7.492 275.026 7.072 275.026 6.592C275.026 5.92 274.798 5.392 274.342 5.008C273.874 4.624 273.238 4.432 272.446 4.432H268.618ZM269.602 5.26H272.218C272.818 5.26 273.274 5.368 273.586 5.608C273.898 5.848 274.054 6.208 274.054 6.688C274.054 7.18 273.886 7.552 273.574 7.804C273.262 8.044 272.806 8.176 272.206 8.176H269.602V5.26ZM269.602 8.992H272.338C272.998 8.992 273.502 9.112 273.85 9.376C274.21 9.64 274.402 10.048 274.402 10.6C274.402 11.152 274.186 11.572 273.766 11.836C273.406 12.052 272.938 12.172 272.338 12.172H269.602V8.992ZM276.571 3.076C277.051 3.868 277.435 4.696 277.711 5.56C278.059 6.616 278.239 7.648 278.239 8.68C278.239 9.7 278.059 10.744 277.711 11.8C277.435 12.652 277.051 13.48 276.571 14.284H277.411C277.927 13.504 278.335 12.676 278.647 11.812C278.995 10.78 279.175 9.736 279.175 8.692C279.175 7.624 278.995 6.58 278.647 5.548C278.335 4.672 277.927 3.844 277.411 3.076H276.571Z" fill="black"/>
</g>
<g clip-path="url(#clip2_1426_18655)">
<path opacity="0.8" d="M320.06 4.264C318.74 4.264 317.708 4.708 316.988 5.62C316.328 6.436 316.004 7.48 316.004 8.752C316.004 10.024 316.316 11.056 316.964 11.848C317.672 12.724 318.692 13.168 320.024 13.168C320.936 13.168 321.728 12.904 322.388 12.388C323.096 11.836 323.54 11.056 323.732 10.06H322.784C322.616 10.804 322.268 11.368 321.764 11.752C321.284 12.112 320.708 12.292 320.024 12.292C319.016 12.292 318.26 11.956 317.732 11.296C317.228 10.672 316.988 9.82 316.988 8.752C316.988 7.684 317.24 6.832 317.744 6.184C318.284 5.488 319.052 5.14 320.048 5.14C320.72 5.14 321.284 5.296 321.752 5.62C322.232 5.956 322.544 6.436 322.664 7.06H323.612C323.492 6.208 323.108 5.524 322.46 5.02C321.812 4.516 321.008 4.264 320.06 4.264ZM327.746 6.628C326.81 6.628 326.078 6.94 325.526 7.588C324.998 8.2 324.734 8.968 324.734 9.904C324.734 10.828 324.998 11.596 325.526 12.196C326.078 12.844 326.81 13.168 327.746 13.168C328.67 13.168 329.414 12.844 329.978 12.196C330.494 11.596 330.758 10.828 330.758 9.904C330.758 8.968 330.494 8.2 329.966 7.588C329.414 6.94 328.67 6.628 327.746 6.628ZM327.746 7.432C328.394 7.432 328.91 7.684 329.294 8.188C329.618 8.644 329.786 9.208 329.786 9.904C329.786 10.576 329.618 11.152 329.294 11.608C328.91 12.112 328.394 12.364 327.746 12.364C327.086 12.364 326.57 12.112 326.21 11.608C325.874 11.152 325.718 10.588 325.718 9.904C325.718 9.208 325.874 8.644 326.21 8.188C326.57 7.684 327.086 7.432 327.746 7.432ZM332.198 4.264V13H333.146V4.264H332.198ZM334.83 6.796V10.636C334.83 12.316 335.574 13.168 337.086 13.168C337.926 13.168 338.598 12.784 339.102 12.04V13H340.062V6.796H339.102V10.576C339.03 11.104 338.826 11.536 338.49 11.872C338.166 12.184 337.794 12.352 337.386 12.352C336.822 12.352 336.414 12.196 336.162 11.908C335.91 11.62 335.79 11.176 335.79 10.588V6.796H334.83ZM344.257 6.628C343.561 6.628 342.973 6.952 342.505 7.624V6.796H341.545V13H342.505V9.22C342.505 8.728 342.649 8.308 342.937 7.972C343.225 7.612 343.585 7.444 344.029 7.444C344.977 7.444 345.457 7.984 345.457 9.088V13H346.417V9.112C346.417 8.608 346.549 8.212 346.837 7.9C347.101 7.588 347.449 7.444 347.857 7.444C348.385 7.444 348.769 7.576 349.009 7.864C349.237 8.128 349.357 8.536 349.357 9.088V13H350.317V8.932C350.317 8.224 350.113 7.66 349.729 7.24C349.321 6.832 348.805 6.628 348.157 6.628C347.725 6.628 347.365 6.724 347.065 6.916C346.729 7.096 346.441 7.396 346.201 7.804C345.853 7.012 345.205 6.628 344.257 6.628ZM354.714 6.628C354.306 6.628 353.934 6.724 353.598 6.916C353.262 7.096 352.986 7.36 352.77 7.708V6.796H351.81V13H352.77V9.256C352.806 8.692 352.986 8.248 353.322 7.912C353.634 7.6 354.006 7.444 354.438 7.444C355.518 7.444 356.07 8.044 356.07 9.256V13H357.03V9.184C357.03 7.48 356.25 6.628 354.714 6.628Z" fill="black"/>
</g>
<g clip-path="url(#clip3_1426_18655)">
<path opacity="0.8" d="M413.864 4.432V13H417.668C418.544 13 419.24 12.82 419.744 12.484C420.332 12.076 420.632 11.452 420.632 10.612C420.632 10.036 420.464 9.58 420.152 9.22C419.84 8.86 419.408 8.62 418.844 8.524C419.276 8.38 419.624 8.152 419.888 7.84C420.14 7.492 420.272 7.072 420.272 6.592C420.272 5.92 420.044 5.392 419.588 5.008C419.12 4.624 418.484 4.432 417.692 4.432H413.864ZM414.848 5.26H417.464C418.064 5.26 418.52 5.368 418.832 5.608C419.144 5.848 419.3 6.208 419.3 6.688C419.3 7.18 419.132 7.552 418.82 7.804C418.508 8.044 418.052 8.176 417.452 8.176H414.848V5.26ZM414.848 8.992H417.584C418.244 8.992 418.748 9.112 419.096 9.376C419.456 9.64 419.648 10.048 419.648 10.6C419.648 11.152 419.432 11.572 419.012 11.836C418.652 12.052 418.184 12.172 417.584 12.172H414.848V8.992ZM424.589 6.628C424.157 6.628 423.785 6.76 423.461 7.024C423.197 7.228 422.981 7.516 422.813 7.876V6.796H421.865V13H422.813V9.712C422.813 9.136 422.969 8.644 423.305 8.236C423.629 7.804 424.037 7.6 424.517 7.6C424.817 7.6 425.129 7.636 425.441 7.732V6.772C425.213 6.676 424.925 6.628 424.589 6.628ZM428.804 6.628C427.904 6.628 427.196 6.952 426.668 7.6C426.14 8.212 425.888 8.98 425.888 9.892C425.888 10.9 426.152 11.692 426.704 12.292C427.232 12.868 427.952 13.168 428.84 13.168C429.644 13.168 430.304 12.928 430.82 12.472C431.24 12.088 431.516 11.608 431.66 11.008H430.7C430.544 11.44 430.34 11.764 430.076 11.98C429.764 12.232 429.344 12.364 428.84 12.364C428.252 12.364 427.784 12.172 427.448 11.788C427.112 11.404 426.932 10.864 426.884 10.168H431.78C431.756 9.088 431.516 8.236 431.06 7.636C430.556 6.964 429.8 6.628 428.804 6.628ZM428.828 7.432C430.004 7.432 430.664 8.092 430.784 9.424H426.908C426.968 8.812 427.16 8.332 427.496 7.972C427.832 7.612 428.276 7.432 428.828 7.432ZM435.604 6.628C434.86 6.628 434.272 6.772 433.816 7.06C433.312 7.372 432.988 7.864 432.856 8.512L433.804 8.584C433.9 8.188 434.104 7.888 434.428 7.696C434.716 7.504 435.088 7.42 435.544 7.42C436.624 7.42 437.164 7.936 437.164 8.98V9.304L435.676 9.328C434.74 9.34 434.02 9.52 433.516 9.856C432.94 10.216 432.664 10.744 432.664 11.452C432.664 11.956 432.856 12.376 433.24 12.7C433.612 13.012 434.104 13.168 434.728 13.168C435.304 13.168 435.82 13.036 436.276 12.784C436.66 12.568 436.984 12.292 437.224 11.956V13H438.124V9.016C438.124 8.296 437.932 7.732 437.572 7.324C437.14 6.856 436.492 6.628 435.604 6.628ZM437.164 10.024V10.552C437.164 11.032 436.936 11.464 436.492 11.836C436.036 12.22 435.52 12.412 434.932 12.412C434.548 12.412 434.236 12.316 433.996 12.136C433.756 11.944 433.648 11.716 433.648 11.428C433.648 10.528 434.344 10.072 435.736 10.048L437.164 10.024ZM439.607 4.264V13H440.567V10.804L441.551 9.916L443.975 13H445.211L442.211 9.292L444.947 6.796H443.675L440.567 9.676V4.264H439.607ZM448.923 6.628C447.987 6.628 447.303 7.024 446.859 7.816V6.796H445.959V15.376H446.919V11.872C447.399 12.736 448.083 13.168 448.971 13.168C449.859 13.168 450.543 12.832 451.047 12.184C451.503 11.584 451.743 10.828 451.743 9.916C451.743 8.98 451.503 8.224 451.035 7.624C450.519 6.952 449.811 6.628 448.923 6.628ZM448.803 7.42C449.463 7.42 449.967 7.66 450.315 8.164C450.603 8.596 450.759 9.184 450.759 9.916C450.759 10.66 450.603 11.248 450.291 11.68C449.943 12.136 449.439 12.376 448.767 12.376C448.191 12.376 447.747 12.148 447.411 11.716C447.051 11.272 446.883 10.696 446.883 9.976V9.856C446.883 9.16 447.039 8.584 447.351 8.152C447.687 7.66 448.179 7.42 448.803 7.42ZM455.762 6.628C454.826 6.628 454.094 6.94 453.542 7.588C453.014 8.2 452.75 8.968 452.75 9.904C452.75 10.828 453.014 11.596 453.542 12.196C454.094 12.844 454.826 13.168 455.762 13.168C456.686 13.168 457.43 12.844 457.994 12.196C458.51 11.596 458.774 10.828 458.774 9.904C458.774 8.968 458.51 8.2 457.982 7.588C457.43 6.94 456.686 6.628 455.762 6.628ZM455.762 7.432C456.41 7.432 456.926 7.684 457.31 8.188C457.634 8.644 457.802 9.208 457.802 9.904C457.802 10.576 457.634 11.152 457.31 11.608C456.926 12.112 456.41 12.364 455.762 12.364C455.102 12.364 454.586 12.112 454.226 11.608C453.89 11.152 453.734 10.588 453.734 9.904C453.734 9.208 453.89 8.644 454.226 8.188C454.586 7.684 455.102 7.432 455.762 7.432ZM460.813 4.456C460.609 4.456 460.441 4.516 460.297 4.66C460.153 4.78 460.093 4.948 460.093 5.164C460.093 5.368 460.153 5.536 460.297 5.68C460.441 5.812 460.609 5.884 460.813 5.884C461.017 5.884 461.185 5.812 461.329 5.68C461.473 5.536 461.545 5.368 461.545 5.164C461.545 4.948 461.473 4.78 461.329 4.66C461.185 4.516 461.017 4.456 460.813 4.456ZM460.333 6.796V13H461.293V6.796H460.333ZM465.996 6.628C465.588 6.628 465.216 6.724 464.88 6.916C464.544 7.096 464.268 7.36 464.052 7.708V6.796H463.092V13H464.052V9.256C464.088 8.692 464.268 8.248 464.604 7.912C464.916 7.6 465.288 7.444 465.72 7.444C466.8 7.444 467.352 8.044 467.352 9.256V13H468.312V9.184C468.312 7.48 467.532 6.628 465.996 6.628ZM471.451 4.792L470.503 5.188V6.796H469.255V7.6H470.503V11.548C470.503 12.016 470.599 12.364 470.803 12.604C471.019 12.868 471.391 13 471.895 13H472.831V12.196H472.039C471.823 12.196 471.667 12.136 471.583 12.04C471.487 11.944 471.451 11.776 471.451 11.548V7.6H472.987V6.796H471.451V4.792ZM476.256 6.628C475.56 6.628 474.984 6.784 474.552 7.096C474.084 7.408 473.856 7.816 473.856 8.344C473.856 8.872 474.084 9.268 474.564 9.556C474.852 9.748 475.368 9.928 476.1 10.108C476.772 10.276 477.216 10.408 477.42 10.504C477.804 10.696 478.008 10.96 478.008 11.308C478.008 12.004 477.444 12.364 476.34 12.364C475.812 12.364 475.416 12.268 475.152 12.076C474.888 11.86 474.708 11.512 474.636 11.02H473.7C473.844 12.448 474.732 13.168 476.364 13.168C478.116 13.168 478.992 12.52 478.992 11.248C478.992 10.708 478.74 10.288 478.248 9.976C477.924 9.772 477.396 9.58 476.652 9.4C476.028 9.232 475.596 9.1 475.368 8.992C475.008 8.812 474.84 8.584 474.84 8.32C474.84 8.044 474.972 7.828 475.236 7.672C475.476 7.504 475.812 7.432 476.244 7.432C476.736 7.432 477.12 7.528 477.384 7.72C477.624 7.888 477.78 8.176 477.864 8.56H478.8C478.632 7.264 477.792 6.628 476.256 6.628Z" fill="black"/>
</g>
<defs>
<clipPath id="clip0_1426_18655">
<rect width="59" height="14" fill="white" transform="translate(134)"/>
</clipPath>
<clipPath id="clip1_1426_18655">
<rect width="56" height="14" fill="white" transform="translate(224)"/>
</clipPath>
<clipPath id="clip2_1426_18655">
<rect width="45" height="14" fill="white" transform="translate(315)"/>
</clipPath>
<clipPath id="clip3_1426_18655">
<rect width="69" height="14" fill="white" transform="translate(413)"/>
</clipPath>
</defs>
</svg>
