<svg width="1440" height="990" viewBox="0 0 1440 990" fill="none" xmlns="http://www.w3.org/2000/svg">
<rect y="30" width="1440" height="960" fill="white"/>
<path d="M0.5 30.5H1439.5V85.5H0.5V30.5Z" fill="#DEE7FF" stroke="#276EF9"/>
<path d="M0 8C0 3.58172 3.58172 0 8 0H1432C1436.42 0 1440 3.58172 1440 8V30H0V8Z" fill="url(#paint0_linear_1426_18648)"/>
<circle cx="40" cy="15" r="5" fill="#FFD533"/>
<circle cx="20" cy="15" r="5" fill="#FF5633"/>
<circle cx="60" cy="15" r="5" fill="#5CE68A"/>
<path d="M299.5 85.5H314.5V989.5H299.5V85.5Z" fill="#FF6CEF" fill-opacity="0.097911" stroke="#FF6CEF"/>
<path d="M401.5 85.5H416.5V989.5H401.5V85.5Z" fill="#FF6CEF" fill-opacity="0.097911" stroke="#FF6CEF"/>
<path d="M503.5 85.5H518.5V989.5H503.5V85.5Z" fill="#FF6CEF" fill-opacity="0.097911" stroke="#FF6CEF"/>
<path d="M605.5 85.5H620.5V989.5H605.5V85.5Z" fill="#FF6CEF" fill-opacity="0.097911" stroke="#FF6CEF"/>
<path d="M707.5 85.5H722.5V989.5H707.5V85.5Z" fill="#FF6CEF" fill-opacity="0.097911" stroke="#FF6CEF"/>
<path d="M809.5 85.5H824.5V989.5H809.5V85.5Z" fill="#FF6CEF" fill-opacity="0.097911" stroke="#FF6CEF"/>
<path d="M912.5 85.5H927.5V989.5H912.5V85.5Z" fill="#FF6CEF" fill-opacity="0.097911" stroke="#FF6CEF"/>
<path d="M1015.5 85.5H1030.5V989.5H1015.5V85.5Z" fill="#FF6CEF" fill-opacity="0.097911" stroke="#FF6CEF"/>
<path d="M1118.5 85.5H1133.5V989.5H1118.5V85.5Z" fill="#FF6CEF" fill-opacity="0.097911" stroke="#FF6CEF"/>
<path d="M1221.5 85.5H1236.5V989.5H1221.5V85.5Z" fill="#FF6CEF" fill-opacity="0.097911" stroke="#FF6CEF"/>
<path d="M1324.5 85.5H1339.5V989.5H1324.5V85.5Z" fill="#FF6CEF" fill-opacity="0.097911" stroke="#FF6CEF"/>
<g clip-path="url(#clip0_1426_18648)">
<path d="M508.5 101.5L508.5 83.5L645.5 83.5" stroke="#4B4F5E" stroke-linecap="round" stroke-linejoin="round"/>
<path d="M518.532 43.852C516.852 43.852 515.524 44.444 514.548 45.644C513.62 46.748 513.172 48.14 513.172 49.836C513.172 51.532 513.636 52.924 514.564 53.996C515.556 55.148 516.964 55.724 518.772 55.724C519.716 55.724 520.596 55.596 521.428 55.34C522.212 55.084 522.884 54.748 523.428 54.3V49.628H518.548V50.764H522.132V53.676C521.732 53.932 521.252 54.156 520.692 54.316C520.116 54.476 519.524 54.572 518.9 54.572C517.412 54.572 516.292 54.124 515.54 53.244C514.836 52.412 514.484 51.276 514.484 49.836C514.484 48.364 514.836 47.196 515.572 46.332C516.308 45.452 517.284 45.02 518.532 45.02C519.54 45.02 520.356 45.26 520.98 45.756C521.572 46.22 521.956 46.876 522.132 47.74H523.444C523.236 46.492 522.74 45.548 521.94 44.892C521.092 44.188 519.956 43.852 518.532 43.852ZM525.461 47.228V52.348C525.461 54.588 526.453 55.724 528.469 55.724C529.589 55.724 530.485 55.212 531.157 54.22V55.5H532.437V47.228H531.157V52.268C531.061 52.972 530.789 53.548 530.341 53.996C529.909 54.412 529.413 54.636 528.869 54.636C528.117 54.636 527.573 54.428 527.237 54.044C526.901 53.66 526.741 53.068 526.741 52.284V47.228H525.461ZM536.622 44.556L535.358 45.084V47.228H533.694V48.3H535.358V53.564C535.358 54.188 535.486 54.652 535.758 54.972C536.046 55.324 536.542 55.5 537.214 55.5H538.462V54.428H537.406C537.118 54.428 536.91 54.348 536.798 54.22C536.67 54.092 536.622 53.868 536.622 53.564V48.3H538.67V47.228H536.622V44.556ZM542.309 44.556L541.045 45.084V47.228H539.381V48.3H541.045V53.564C541.045 54.188 541.173 54.652 541.445 54.972C541.733 55.324 542.229 55.5 542.901 55.5H544.149V54.428H543.093C542.805 54.428 542.597 54.348 542.485 54.22C542.357 54.092 542.309 53.868 542.309 53.564V48.3H544.357V47.228H542.309V44.556ZM549.197 47.004C547.997 47.004 547.053 47.436 546.349 48.3C545.645 49.116 545.309 50.14 545.309 51.356C545.309 52.7 545.661 53.756 546.397 54.556C547.101 55.324 548.061 55.724 549.245 55.724C550.317 55.724 551.197 55.404 551.885 54.796C552.445 54.284 552.813 53.644 553.005 52.844H551.725C551.517 53.42 551.245 53.852 550.893 54.14C550.477 54.476 549.917 54.652 549.245 54.652C548.461 54.652 547.837 54.396 547.389 53.884C546.941 53.372 546.701 52.652 546.637 51.724H553.165C553.133 50.284 552.813 49.148 552.205 48.348C551.533 47.452 550.525 47.004 549.197 47.004ZM549.229 48.076C550.797 48.076 551.677 48.956 551.837 50.732H546.669C546.749 49.916 547.005 49.276 547.453 48.796C547.901 48.316 548.493 48.076 549.229 48.076ZM558.296 47.004C557.72 47.004 557.224 47.18 556.792 47.532C556.44 47.804 556.152 48.188 555.928 48.668V47.228H554.664V55.5H555.928V51.116C555.928 50.348 556.136 49.692 556.584 49.148C557.016 48.572 557.56 48.3 558.2 48.3C558.6 48.3 559.016 48.348 559.432 48.476V47.196C559.128 47.068 558.744 47.004 558.296 47.004ZM560.316 49.18V50.252H568.396V49.18H560.316ZM560.316 52.46V53.548H568.396V52.46H560.316ZM572.883 44.076C572.499 44.508 572.051 44.892 571.507 45.244C570.963 45.564 570.419 45.788 569.907 45.932V47.244C570.979 46.924 571.875 46.412 572.595 45.676V55.5H573.907V44.076H572.883ZM580.585 43.852C579.289 43.852 578.265 44.444 577.513 45.644C576.793 46.78 576.441 48.268 576.441 50.092C576.441 51.836 576.761 53.196 577.433 54.172C578.137 55.196 579.177 55.724 580.569 55.724C581.689 55.724 582.601 55.34 583.337 54.604C584.057 53.868 584.425 52.924 584.425 51.804C584.425 50.684 584.089 49.788 583.433 49.084C582.761 48.38 581.881 48.028 580.793 48.028C580.121 48.028 579.529 48.188 579.017 48.524C578.473 48.844 578.073 49.308 577.785 49.9H577.721C577.705 49.692 577.705 49.548 577.705 49.484C577.705 48.188 577.945 47.116 578.457 46.284C578.969 45.388 579.673 44.956 580.569 44.956C581.897 44.956 582.681 45.596 582.937 46.908H584.233C583.913 44.86 582.697 43.852 580.585 43.852ZM580.537 49.116C581.321 49.116 581.945 49.356 582.425 49.868C582.889 50.348 583.129 50.988 583.129 51.804C583.129 52.62 582.889 53.292 582.409 53.836C581.929 54.348 581.305 54.62 580.537 54.62C579.737 54.62 579.113 54.348 578.633 53.804C578.153 53.292 577.929 52.636 577.929 51.836C577.929 51.036 578.169 50.396 578.665 49.884C579.161 49.372 579.785 49.116 580.537 49.116Z" fill="#4B4F5E"/>
<path d="M513.316 68.744V69.584H516.364C515.74 71.816 514.612 73.544 512.968 74.756L513.52 75.464C515.368 74.096 516.592 72.08 517.216 69.428V68.744H513.316ZM522.604 67.592C521.812 68.624 520.936 69.548 519.964 70.352C519.604 69.68 519.292 68.96 519.04 68.192V65.648H518.152V75.308C518.152 75.668 517.984 75.86 517.672 75.86C517.216 75.86 516.724 75.836 516.22 75.8L516.4 76.652H517.972C518.68 76.652 519.04 76.268 519.04 75.524V70.064C519.928 72.152 521.428 74 523.516 75.608L524.044 74.828C522.532 73.82 521.296 72.56 520.36 71.036C521.38 70.244 522.364 69.26 523.3 68.108L522.604 67.592ZM529.312 68.096V71.852H535.576V68.096H533.788V67.292H535.912V66.584H533.788V65.684H533.008V66.584H531.892V65.684H531.1V66.584H528.94V67.292H531.1V68.096H529.312ZM533.008 67.292V68.096H531.892V67.292H533.008ZM534.868 71.276H533.692V70.256H534.868V71.276ZM533.02 71.276H531.88V70.256H533.02V71.276ZM531.208 71.276H530.032V70.256H531.208V71.276ZM530.032 69.692V68.732H531.208V69.692H530.032ZM531.88 68.732H533.02V69.692H531.88V68.732ZM533.692 68.732H534.868V69.692H533.692V68.732ZM535.18 72.536H529.696V76.736H530.5V76.256H534.388V76.736H535.18V72.536ZM530.5 75.572V74.696H534.388V75.572H530.5ZM530.5 74.072V73.172H534.388V74.072H530.5ZM527.488 70.448C527.776 70.856 528.124 71.396 528.52 72.068L528.964 71.384C528.472 70.724 527.98 70.124 527.488 69.572V68.852H528.7V68.072H527.488V65.696H526.672V68.072H525.196V68.852H526.636C526.288 70.316 525.712 71.636 524.908 72.788L525.28 73.736C525.856 72.788 526.312 71.732 526.672 70.58V76.7H527.488V70.448ZM539.5 68.192C539.284 68.192 539.116 68.264 538.972 68.42C538.828 68.552 538.768 68.72 538.768 68.936C538.768 69.14 538.828 69.308 538.972 69.452C539.116 69.596 539.284 69.668 539.5 69.668C539.704 69.668 539.884 69.596 540.028 69.452C540.172 69.308 540.244 69.14 540.244 68.936C540.244 68.72 540.172 68.552 540.028 68.42C539.884 68.264 539.704 68.192 539.5 68.192ZM539.5 72.584C539.284 72.584 539.116 72.656 538.972 72.812C538.828 72.944 538.768 73.112 538.768 73.328C538.768 73.532 538.828 73.7 538.972 73.844C539.116 73.988 539.284 74.06 539.5 74.06C539.704 74.06 539.884 73.988 540.028 73.844C540.172 73.7 540.244 73.532 540.244 73.328C540.244 73.112 540.172 72.944 540.028 72.812C539.884 72.656 539.704 72.584 539.5 72.584ZM559.444 66.404H553.84V76.712H554.668V75.956H558.604V76.7H559.444V66.404ZM554.668 75.14V73.016H558.604V75.14H554.668ZM554.668 72.212V70.088H558.604V72.212H554.668ZM554.668 69.284V67.22H558.604V69.284H554.668ZM551.728 70.424C552.064 70.868 552.46 71.444 552.916 72.14L553.384 71.444C552.832 70.736 552.28 70.088 551.728 69.512V68.876H553.276V68.048H551.728V65.708H550.876V68.048H549.184V68.876H550.852C550.468 70.376 549.844 71.708 548.968 72.872L549.304 73.724C549.952 72.788 550.468 71.756 550.876 70.604V76.688H551.728V70.424ZM567.556 66.212V76.64H568.396V67.004H570.628C570.208 68.288 569.776 69.404 569.344 70.34C570.376 71.54 570.904 72.512 570.916 73.256C570.904 73.64 570.832 73.904 570.688 74.048C570.544 74.18 570.22 74.252 569.716 74.276C569.5 74.276 569.248 74.252 568.936 74.228L569.188 75.08C570.208 75.08 570.892 74.936 571.228 74.66C571.54 74.396 571.708 73.928 571.708 73.256C571.696 72.5 571.192 71.528 570.196 70.34C570.676 69.26 571.108 68.096 571.516 66.848V66.212H567.556ZM563.896 65.816C562.996 67.304 562 68.612 560.908 69.716L561.376 70.364C562.48 69.236 563.44 67.988 564.268 66.644C564.904 67.292 565.648 68.18 566.5 69.284L567.064 68.696C566.236 67.688 565.384 66.728 564.508 65.816H563.896ZM561.724 71.036V71.816H565.672C565.156 72.752 564.628 73.532 564.076 74.18C563.632 73.856 563.152 73.532 562.636 73.196L562.072 73.748C563.524 74.72 564.664 75.632 565.48 76.484L566.092 75.86C565.672 75.452 565.204 75.056 564.688 74.648C565.396 73.784 566.02 72.824 566.56 71.744V71.036H561.724ZM564.784 70.604L565.348 70.052C564.7 69.38 564.148 68.876 563.668 68.54L563.128 69.068C563.68 69.5 564.232 70.004 564.784 70.604ZM573.196 66.248V67.1H576.424V68.972H573.772V76.652H574.624V69.8H576.388C576.244 71.72 575.716 73.16 574.828 74.108L575.476 74.672C576.136 73.952 576.616 72.992 576.904 71.78C577.192 72.248 577.54 72.896 577.96 73.724L578.452 72.992C577.984 72.248 577.516 71.576 577.06 70.976C577.108 70.604 577.156 70.208 577.192 69.8H579.724C579.604 71.864 579.064 73.388 578.104 74.396L578.74 74.96C579.484 74.168 580.012 73.076 580.3 71.684C580.66 72.332 581.092 73.232 581.596 74.384L582.124 73.592C581.56 72.56 580.996 71.612 580.444 70.772C580.48 70.46 580.504 70.136 580.528 69.8H582.376V75.2C582.376 75.584 582.22 75.788 581.908 75.788L580.732 75.752L580.948 76.592H582.184C582.88 76.592 583.228 76.184 583.228 75.392V68.972H580.564V67.1H583.804V66.248H573.196ZM577.228 68.972V67.1H579.748V68.972H577.228ZM590.056 69.248V76.688H590.944V69.248H590.056ZM590.116 65.708C588.904 67.508 587.176 68.984 584.932 70.124L585.448 70.904C587.488 69.872 589.168 68.408 590.5 66.512C591.604 68.24 593.296 69.68 595.552 70.856L596.068 70.076C593.62 68.816 591.892 67.364 590.884 65.708H590.116ZM602.752 65.852L601.996 66.224C602.404 66.848 602.8 67.544 603.172 68.336L603.94 67.952C603.568 67.184 603.172 66.488 602.752 65.852ZM606.244 65.708C605.908 66.812 605.512 67.832 605.056 68.768H601.648V69.608H607.588V68.768H605.956C606.388 67.976 606.76 67.052 607.096 66.008L606.244 65.708ZM599.8 70.508C600.16 70.988 600.58 71.588 601.06 72.332L601.576 71.576C600.976 70.82 600.388 70.148 599.8 69.548V68.876H601.24V68.048H599.8V65.708H598.924V68.048H597.172V68.876H598.876C598.492 70.352 597.832 71.672 596.896 72.824L597.268 73.76C597.952 72.776 598.504 71.672 598.924 70.46V76.652H599.8V70.508ZM601.144 75.212V76.052H607.948V75.212H601.144ZM602.032 71.888V72.728H607.216V71.888H602.032ZM613.348 67.772H611.416C611.656 67.172 611.836 66.512 611.98 65.804L611.116 65.684C611.008 66.404 610.84 67.1 610.6 67.772H609.484V76.304H610.324V75.272H612.508V75.956H613.348V67.772ZM610.324 74.468V71.84H612.508V74.468H610.324ZM610.324 71.06V68.588H612.508V71.06H610.324ZM615.436 70.556L614.74 70.988C615.568 71.972 616.228 72.86 616.72 73.652L617.404 73.172C616.948 72.428 616.3 71.552 615.436 70.556ZM619.552 67.784H615.724C615.94 67.16 616.108 66.488 616.252 65.78L615.4 65.672C615.088 67.376 614.524 68.816 613.684 69.992L614.2 70.676C614.668 70.064 615.064 69.38 615.4 68.624H618.7C618.676 72.08 618.628 74.156 618.556 74.828C618.46 75.44 618.136 75.752 617.572 75.752C617.2 75.752 616.768 75.74 616.264 75.716L616.468 76.508C617.044 76.532 617.452 76.556 617.692 76.556C618.7 76.556 619.252 76.088 619.372 75.176C619.492 74.24 619.552 71.768 619.552 67.784ZM621.616 66.188V69.98H623.344V75.08C623.032 75.152 622.696 75.236 622.36 75.308V71.18H621.592V75.476C621.376 75.524 621.148 75.56 620.932 75.608L621.172 76.448C622.912 76.076 624.436 75.68 625.732 75.26V74.408C625.228 74.564 624.7 74.72 624.148 74.876V72.668H625.48V71.852H624.148V69.98H625.336V66.188H621.616ZM624.496 69.176H622.456V66.992H624.496V69.176ZM631.216 73.088V69.008H627.136V66.968H631.636V66.14H626.308V76.244H631.816V75.416H627.136V73.088H631.216ZM627.136 69.8H630.4V72.284H627.136V69.8ZM641.5 70.568H635.512V67.964H634.684V71.288H637.636C637.54 71.576 637.456 71.864 637.36 72.128H633.952V76.688H634.78V72.908H637.06C636.772 73.58 636.484 74.156 636.172 74.636C636.112 74.708 635.992 74.756 635.8 74.78L636.004 75.56C638.008 75.332 639.472 75.128 640.396 74.96C640.492 75.164 640.6 75.38 640.708 75.62L641.404 75.272C640.984 74.432 640.528 73.64 640.048 72.908H642.244V75.524C642.244 75.776 642.088 75.908 641.788 75.908L640.84 75.872L641.056 76.688H642.064C642.736 76.688 643.072 76.352 643.072 75.704V72.128H638.188C638.284 71.864 638.38 71.588 638.476 71.288H642.328V67.964H641.5V70.568ZM639.784 72.908L639.34 73.124C639.568 73.484 639.796 73.868 640.036 74.288C639.076 74.456 638.068 74.588 637.012 74.696C637.3 74.192 637.6 73.604 637.888 72.908H639.784ZM636.568 67.724L636.196 68.276C636.808 68.492 637.42 68.756 638.032 69.044C637.432 69.356 636.772 69.608 636.028 69.824L636.412 70.448C637.372 70.112 638.152 69.764 638.776 69.416C639.364 69.716 639.952 70.064 640.54 70.448L640.936 69.848C640.456 69.548 639.964 69.26 639.448 68.996C639.856 68.708 640.276 68.372 640.696 67.988L640.084 67.616C639.676 68 639.232 68.336 638.74 68.648C638.044 68.312 637.324 68 636.568 67.724ZM638.668 65.612L637.78 65.756C637.924 66.02 638.068 66.296 638.2 66.608H633.352V67.412H643.648V66.608H639.064C638.944 66.236 638.812 65.9 638.668 65.612Z" fill="#4B4F5E"/>
</g>
<g clip-path="url(#clip1_1426_18648)">
<path d="M199.5 101.5L199.5 83.5H359.5" stroke="#4B4F5E" stroke-linecap="round" stroke-linejoin="round"/>
<path d="M204.652 44.076V55.5H205.964V46.412H206.012L209.964 55.5H211.148L215.1 46.412H215.148V55.5H216.46V44.076H214.828L210.588 53.82H210.54L206.284 44.076H204.652ZM222.201 47.004C221.209 47.004 220.425 47.196 219.817 47.58C219.145 47.996 218.713 48.652 218.537 49.516L219.801 49.612C219.929 49.084 220.201 48.684 220.633 48.428C221.017 48.172 221.513 48.06 222.121 48.06C223.561 48.06 224.281 48.748 224.281 50.14V50.572L222.297 50.604C221.049 50.62 220.089 50.86 219.417 51.308C218.649 51.788 218.281 52.492 218.281 53.436C218.281 54.108 218.537 54.668 219.049 55.1C219.545 55.516 220.201 55.724 221.033 55.724C221.801 55.724 222.489 55.548 223.097 55.212C223.609 54.924 224.041 54.556 224.361 54.108V55.5H225.561V50.188C225.561 49.228 225.305 48.476 224.825 47.932C224.249 47.308 223.385 47.004 222.201 47.004ZM224.281 51.532V52.236C224.281 52.876 223.977 53.452 223.385 53.948C222.777 54.46 222.089 54.716 221.305 54.716C220.793 54.716 220.377 54.588 220.057 54.348C219.737 54.092 219.593 53.788 219.593 53.404C219.593 52.204 220.521 51.596 222.377 51.564L224.281 51.532ZM231.171 47.004C230.595 47.004 230.099 47.18 229.667 47.532C229.315 47.804 229.027 48.188 228.803 48.668V47.228H227.539V55.5H228.803V51.116C228.803 50.348 229.011 49.692 229.459 49.148C229.891 48.572 230.435 48.3 231.075 48.3C231.475 48.3 231.891 48.348 232.307 48.476V47.196C232.003 47.068 231.619 47.004 231.171 47.004ZM236.791 47.004C235.639 47.004 234.727 47.404 234.055 48.22C233.383 48.988 233.063 49.964 233.063 51.18C233.063 52.38 233.383 53.356 234.055 54.124C234.727 54.908 235.639 55.308 236.791 55.308C238.039 55.308 238.967 54.748 239.575 53.644V55.1C239.575 56.924 238.743 57.852 237.079 57.852C236.327 57.852 235.767 57.708 235.399 57.436C235.031 57.18 234.791 56.764 234.695 56.204H233.415C233.559 57.1 233.927 57.772 234.519 58.22C235.095 58.668 235.959 58.892 237.079 58.892C239.591 58.892 240.855 57.564 240.855 54.924V47.228H239.575V48.652C238.967 47.548 238.039 47.004 236.791 47.004ZM236.983 48.06C237.799 48.06 238.439 48.348 238.919 48.956C239.367 49.5 239.591 50.252 239.591 51.18C239.591 52.076 239.367 52.812 238.919 53.372C238.439 53.948 237.799 54.236 236.967 54.236C236.071 54.236 235.415 53.916 234.967 53.308C234.567 52.764 234.375 52.044 234.375 51.18C234.375 50.252 234.599 49.5 235.047 48.956C235.511 48.348 236.151 48.06 236.983 48.06ZM243.892 44.108C243.62 44.108 243.396 44.188 243.204 44.38C243.012 44.54 242.932 44.764 242.932 45.052C242.932 45.324 243.012 45.548 243.204 45.74C243.396 45.916 243.62 46.012 243.892 46.012C244.164 46.012 244.388 45.916 244.58 45.74C244.772 45.548 244.868 45.324 244.868 45.052C244.868 44.764 244.772 44.54 244.58 44.38C244.388 44.188 244.164 44.108 243.892 44.108ZM243.252 47.228V55.5H244.532V47.228H243.252ZM250.802 47.004C250.258 47.004 249.762 47.132 249.314 47.388C248.866 47.628 248.498 47.98 248.21 48.444V47.228H246.93V55.5H248.21V50.508C248.258 49.756 248.498 49.164 248.946 48.716C249.362 48.3 249.858 48.092 250.434 48.092C251.874 48.092 252.61 48.892 252.61 50.508V55.5H253.89V50.412C253.89 48.14 252.85 47.004 250.802 47.004ZM255.675 49.18V50.252H263.755V49.18H255.675ZM255.675 52.46V53.548H263.755V52.46H255.675ZM269.523 43.852C268.371 43.852 267.427 44.236 266.723 45.004C266.019 45.756 265.651 46.78 265.651 48.06H266.963C266.979 47.052 267.219 46.284 267.667 45.772C268.083 45.228 268.691 44.972 269.475 44.972C270.211 44.972 270.803 45.164 271.219 45.548C271.635 45.932 271.843 46.46 271.843 47.164C271.843 47.9 271.539 48.588 270.963 49.212C270.659 49.532 270.067 49.996 269.171 50.636C267.955 51.468 267.139 52.156 266.691 52.668C265.923 53.516 265.555 54.46 265.555 55.5H273.171V54.332H267.171C267.379 53.564 268.211 52.684 269.667 51.708C270.851 50.908 271.635 50.284 272.035 49.868C272.771 49.068 273.155 48.172 273.155 47.18C273.155 46.188 272.803 45.372 272.131 44.764C271.443 44.156 270.579 43.852 269.523 43.852ZM280.3 44.076L274.54 51.66V52.908H280.284V55.5H281.532V52.908H283.388V51.836H281.532V44.076H280.3ZM280.236 45.788H280.284V51.836H275.644L280.236 45.788Z" fill="#4B4F5E"/>
<path d="M210.04 65.708V67.616H207.76V68.444H210.028C209.932 70.988 209.092 72.86 207.496 74.036L208.156 74.624C209.872 73.304 210.784 71.24 210.904 68.444H213.52C213.484 70.832 213.376 72.308 213.208 72.86C213.016 73.436 212.56 73.724 211.84 73.736C211.612 73.736 211.324 73.712 210.976 73.688L211.204 74.504C211.528 74.528 211.804 74.54 212.044 74.54C212.896 74.54 213.496 74.204 213.844 73.556C214.18 72.908 214.36 70.928 214.384 67.616H210.916V65.708H210.04ZM204.976 65.888L204.376 66.452C205.24 67.136 205.912 67.772 206.404 68.372L207.028 67.736C206.476 67.124 205.792 66.512 204.976 65.888ZM212.272 76.484H214.804L215.02 75.608C214.732 75.632 214.312 75.644 213.772 75.656C213.22 75.656 212.692 75.668 212.164 75.668C211.18 75.668 210.352 75.656 209.692 75.644C208.948 75.62 208.372 75.536 207.988 75.38C207.64 75.212 207.316 74.96 207.004 74.624C206.896 74.504 206.788 74.42 206.692 74.348V69.836H204.136V70.676H205.864V74.3C205.36 74.516 204.796 75.14 204.148 76.16L204.796 76.748C205.468 75.62 205.96 75.068 206.248 75.068C206.404 75.068 206.572 75.164 206.74 75.368C207.124 75.8 207.568 76.1 208.072 76.244C208.564 76.376 209.224 76.448 210.04 76.46C210.844 76.472 211.588 76.484 212.272 76.484ZM216.616 66.188V69.98H218.344V75.08C218.032 75.152 217.696 75.236 217.36 75.308V71.18H216.592V75.476C216.376 75.524 216.148 75.56 215.932 75.608L216.172 76.448C217.912 76.076 219.436 75.68 220.732 75.26V74.408C220.228 74.564 219.7 74.72 219.148 74.876V72.668H220.48V71.852H219.148V69.98H220.336V66.188H216.616ZM219.496 69.176H217.456V66.992H219.496V69.176ZM226.216 73.088V69.008H222.136V66.968H226.636V66.14H221.308V76.244H226.816V75.416H222.136V73.088H226.216ZM222.136 69.8H225.4V72.284H222.136V69.8ZM230.5 68.192C230.284 68.192 230.116 68.264 229.972 68.42C229.828 68.552 229.768 68.72 229.768 68.936C229.768 69.14 229.828 69.308 229.972 69.452C230.116 69.596 230.284 69.668 230.5 69.668C230.704 69.668 230.884 69.596 231.028 69.452C231.172 69.308 231.244 69.14 231.244 68.936C231.244 68.72 231.172 68.552 231.028 68.42C230.884 68.264 230.704 68.192 230.5 68.192ZM230.5 72.584C230.284 72.584 230.116 72.656 229.972 72.812C229.828 72.944 229.768 73.112 229.768 73.328C229.768 73.532 229.828 73.7 229.972 73.844C230.116 73.988 230.284 74.06 230.5 74.06C230.704 74.06 230.884 73.988 231.028 73.844C231.172 73.7 231.244 73.532 231.244 73.328C231.244 73.112 231.172 72.944 231.028 72.812C230.884 72.656 230.704 72.584 230.5 72.584ZM240.22 70.376V71.072H241.372V75.224L240.256 75.272L240.364 76.016C242.032 75.92 243.436 75.8 244.576 75.668V76.724H245.416V75.56C245.656 75.512 245.896 75.476 246.112 75.44V74.756C245.896 74.792 245.656 74.828 245.416 74.864V71.072H250.804V70.376H240.22ZM242.152 75.188V74.156H244.576V74.972C243.856 75.056 243.04 75.128 242.152 75.188ZM242.152 73.52V72.62H244.576V73.52H242.152ZM242.152 71.972V71.072H244.576V71.972H242.152ZM241.744 66.128V69.584H249.328V66.128H241.744ZM248.5 68.96H242.572V68.156H248.5V68.96ZM242.572 67.544V66.776H248.5V67.544H242.572ZM246.424 72.584C246.664 73.46 247.108 74.24 247.78 74.936C247.264 75.368 246.64 75.728 245.92 76.04L246.364 76.712C247.144 76.376 247.816 75.968 248.368 75.488C248.908 75.932 249.58 76.34 250.372 76.712L250.816 75.992C250.072 75.68 249.448 75.332 248.92 74.936C249.496 74.264 249.904 73.472 250.132 72.548V71.876H246.04V72.584H246.424ZM248.308 74.42C247.756 73.88 247.384 73.268 247.168 72.584H249.352C249.136 73.256 248.788 73.868 248.308 74.42ZM252.364 67.436V68.276H255.796C255.052 71 253.804 73.112 252.052 74.6L252.496 75.392C253.624 74.492 254.572 73.316 255.34 71.852H258.076V75.512H254.104V76.352H262.852V75.512H258.952V71.852H261.88V71.024H255.736C256.096 70.184 256.42 69.272 256.684 68.276H262.84V67.436H256.888C257.008 66.908 257.104 66.344 257.2 65.756L256.336 65.648C256.24 66.26 256.132 66.86 256 67.436H252.364ZM271.06 66.32H267.196V73.676H267.964V67.064H270.292V73.628H271.06V66.32ZM269.824 74.168L269.296 74.684C269.98 75.404 270.52 76.076 270.904 76.712L271.504 76.112C271.048 75.464 270.496 74.816 269.824 74.168ZM268.792 67.676V71.516C268.768 72.668 268.6 73.616 268.312 74.336C267.976 75.032 267.412 75.584 266.596 76.004L267.04 76.7C267.88 76.268 268.492 75.656 268.876 74.876C269.26 74.036 269.464 72.92 269.488 71.516V67.676H268.792ZM265.204 70.04V76.712H265.996V68.552C266.356 67.76 266.668 66.908 266.92 65.996L266.164 65.648C265.696 67.508 264.952 69.152 263.92 70.592L264.196 71.492C264.556 71.036 264.892 70.544 265.204 70.04ZM273.484 76.604C274.156 76.604 274.504 76.244 274.504 75.536V65.732H273.664V75.332C273.664 75.68 273.508 75.86 273.196 75.86C272.812 75.86 272.416 75.836 272.008 75.8L272.188 76.604H273.484ZM271.9 66.8V74.24H272.656V66.8H271.9ZM276.772 69.344V73.004H281.176V69.344H276.772ZM280.324 72.224H277.636V70.148H280.324V72.224ZM281.548 73.688C279.82 74.18 278.032 74.54 276.16 74.78L276.376 75.632C278.224 75.332 279.952 74.96 281.548 74.528V73.688ZM285.592 76.664C286.192 76.664 286.66 75.824 286.984 74.168L286.24 73.676C286.036 75.044 285.784 75.728 285.496 75.728C285.16 75.728 284.788 75.416 284.368 74.792C284.236 74.576 284.116 74.324 283.996 74.048C284.836 72.824 285.532 71.312 286.096 69.5L285.34 69.092C284.884 70.604 284.32 71.912 283.648 73.016C283.552 72.692 283.48 72.344 283.408 71.972C283.204 70.844 283.096 69.548 283.072 68.084H286.828V67.244H285.664C285.46 66.74 285.244 66.296 285.028 65.9L284.152 66.044C284.392 66.404 284.62 66.812 284.824 67.244H283.06V65.708H282.196V67.244H276.16V68.084H282.196C282.208 69.74 282.352 71.18 282.628 72.404C282.748 72.932 282.88 73.424 283.048 73.88C282.376 74.768 281.608 75.464 280.756 75.98L281.224 76.724C282.028 76.244 282.772 75.596 283.444 74.78C283.564 75.032 283.708 75.272 283.876 75.5C284.428 76.268 284.992 76.652 285.592 76.664ZM297.724 70.928H291.7C292.204 70.136 292.624 69.248 292.984 68.264H298.84V67.436H293.248C293.404 66.896 293.536 66.332 293.656 65.744L292.78 65.636C292.66 66.26 292.516 66.86 292.336 67.436H288.34V68.264H292.048C291.208 70.46 289.84 72.176 287.944 73.4L288.4 74.216C289.408 73.58 290.296 72.788 291.052 71.84V76.712H291.916V76.052H296.872V76.712H297.724V70.928ZM291.916 75.224V71.756H296.872V75.224H291.916ZM307.06 66.32H303.196V73.676H303.964V67.064H306.292V73.628H307.06V66.32ZM305.824 74.168L305.296 74.684C305.98 75.404 306.52 76.076 306.904 76.712L307.504 76.112C307.048 75.464 306.496 74.816 305.824 74.168ZM304.792 67.676V71.516C304.768 72.668 304.6 73.616 304.312 74.336C303.976 75.032 303.412 75.584 302.596 76.004L303.04 76.7C303.88 76.268 304.492 75.656 304.876 74.876C305.26 74.036 305.464 72.92 305.488 71.516V67.676H304.792ZM301.204 70.04V76.712H301.996V68.552C302.356 67.76 302.668 66.908 302.92 65.996L302.164 65.648C301.696 67.508 300.952 69.152 299.92 70.592L300.196 71.492C300.556 71.036 300.892 70.544 301.204 70.04ZM309.484 76.604C310.156 76.604 310.504 76.244 310.504 75.536V65.732H309.664V75.332C309.664 75.68 309.508 75.86 309.196 75.86C308.812 75.86 308.416 75.836 308.008 75.8L308.188 76.604H309.484ZM307.9 66.8V74.24H308.656V66.8H307.9ZM317.752 65.852L316.996 66.224C317.404 66.848 317.8 67.544 318.172 68.336L318.94 67.952C318.568 67.184 318.172 66.488 317.752 65.852ZM321.244 65.708C320.908 66.812 320.512 67.832 320.056 68.768H316.648V69.608H322.588V68.768H320.956C321.388 67.976 321.76 67.052 322.096 66.008L321.244 65.708ZM314.8 70.508C315.16 70.988 315.58 71.588 316.06 72.332L316.576 71.576C315.976 70.82 315.388 70.148 314.8 69.548V68.876H316.24V68.048H314.8V65.708H313.924V68.048H312.172V68.876H313.876C313.492 70.352 312.832 71.672 311.896 72.824L312.268 73.76C312.952 72.776 313.504 71.672 313.924 70.46V76.652H314.8V70.508ZM316.144 75.212V76.052H322.948V75.212H316.144ZM317.032 71.888V72.728H322.216V71.888H317.032ZM328.348 67.772H326.416C326.656 67.172 326.836 66.512 326.98 65.804L326.116 65.684C326.008 66.404 325.84 67.1 325.6 67.772H324.484V76.304H325.324V75.272H327.508V75.956H328.348V67.772ZM325.324 74.468V71.84H327.508V74.468H325.324ZM325.324 71.06V68.588H327.508V71.06H325.324ZM330.436 70.556L329.74 70.988C330.568 71.972 331.228 72.86 331.72 73.652L332.404 73.172C331.948 72.428 331.3 71.552 330.436 70.556ZM334.552 67.784H330.724C330.94 67.16 331.108 66.488 331.252 65.78L330.4 65.672C330.088 67.376 329.524 68.816 328.684 69.992L329.2 70.676C329.668 70.064 330.064 69.38 330.4 68.624H333.7C333.676 72.08 333.628 74.156 333.556 74.828C333.46 75.44 333.136 75.752 332.572 75.752C332.2 75.752 331.768 75.74 331.264 75.716L331.468 76.508C332.044 76.532 332.452 76.556 332.692 76.556C333.7 76.556 334.252 76.088 334.372 75.176C334.492 74.24 334.552 71.768 334.552 67.784ZM342.04 65.708V67.616H339.76V68.444H342.028C341.932 70.988 341.092 72.86 339.496 74.036L340.156 74.624C341.872 73.304 342.784 71.24 342.904 68.444H345.52C345.484 70.832 345.376 72.308 345.208 72.86C345.016 73.436 344.56 73.724 343.84 73.736C343.612 73.736 343.324 73.712 342.976 73.688L343.204 74.504C343.528 74.528 343.804 74.54 344.044 74.54C344.896 74.54 345.496 74.204 345.844 73.556C346.18 72.908 346.36 70.928 346.384 67.616H342.916V65.708H342.04ZM336.976 65.888L336.376 66.452C337.24 67.136 337.912 67.772 338.404 68.372L339.028 67.736C338.476 67.124 337.792 66.512 336.976 65.888ZM344.272 76.484H346.804L347.02 75.608C346.732 75.632 346.312 75.644 345.772 75.656C345.22 75.656 344.692 75.668 344.164 75.668C343.18 75.668 342.352 75.656 341.692 75.644C340.948 75.62 340.372 75.536 339.988 75.38C339.64 75.212 339.316 74.96 339.004 74.624C338.896 74.504 338.788 74.42 338.692 74.348V69.836H336.136V70.676H337.864V74.3C337.36 74.516 336.796 75.14 336.148 76.16L336.796 76.748C337.468 75.62 337.96 75.068 338.248 75.068C338.404 75.068 338.572 75.164 338.74 75.368C339.124 75.8 339.568 76.1 340.072 76.244C340.564 76.376 341.224 76.448 342.04 76.46C342.844 76.472 343.588 76.484 344.272 76.484ZM348.616 66.188V69.98H350.344V75.08C350.032 75.152 349.696 75.236 349.36 75.308V71.18H348.592V75.476C348.376 75.524 348.148 75.56 347.932 75.608L348.172 76.448C349.912 76.076 351.436 75.68 352.732 75.26V74.408C352.228 74.564 351.7 74.72 351.148 74.876V72.668H352.48V71.852H351.148V69.98H352.336V66.188H348.616ZM351.496 69.176H349.456V66.992H351.496V69.176ZM358.216 73.088V69.008H354.136V66.968H358.636V66.14H353.308V76.244H358.816V75.416H354.136V73.088H358.216ZM354.136 69.8H357.4V72.284H354.136V69.8Z" fill="#4B4F5E"/>
</g>
<path d="M199.5 85.5H226.5V989.5H199.5V85.5Z" fill="#F1F5FF" stroke="#276EF9"/>
<path d="M1412.5 85.5H1439.5V989.5H1412.5V85.5Z" fill="#F1F5FF" stroke="#276EF9"/>
<defs>
<linearGradient id="paint0_linear_1426_18648" x1="0" y1="0" x2="0" y2="30" gradientUnits="userSpaceOnUse">
<stop stop-color="#F7F8FA"/>
<stop offset="1" stop-color="#F5F6F8"/>
</linearGradient>
<clipPath id="clip0_1426_18648">
<rect width="137" height="63" fill="white" transform="translate(508.5 38.5)"/>
</clipPath>
<clipPath id="clip1_1426_18648">
<rect width="163" height="63" fill="white" transform="translate(199.5 38.5)"/>
</clipPath>
</defs>
</svg>
