<svg width="1484" height="1034" viewBox="0 0 1484 1034" fill="none" xmlns="http://www.w3.org/2000/svg">
<g filter="url(#filter0_d_1426_18649)">
<rect x="22" y="46" width="1440" height="960" fill="white"/>
<mask id="mask0_1426_18649" style="mask-type:alpha" maskUnits="userSpaceOnUse" x="22" y="46" width="1440" height="960">
<rect x="22" y="46" width="1440" height="960" fill="white"/>
</mask>
<g mask="url(#mask0_1426_18649)">
<path d="M22.5 46.5H1461.5V101.5H22.5V46.5Z" fill="#DEE7FF" stroke="#276EF9"/>
</g>
<path d="M22 24C22 19.5817 25.5817 16 30 16H1454C1458.42 16 1462 19.5817 1462 24V46H22V24Z" fill="url(#paint0_linear_1426_18649)"/>
<circle cx="62" cy="31" r="5" fill="#FFD533"/>
<circle cx="42" cy="31" r="5" fill="#FF5633"/>
<circle cx="82" cy="31" r="5" fill="#5CE68A"/>
</g>
<path d="M22.5 101.5H85.5V1005.5H22.5V101.5Z" fill="#DEE7FF" stroke="#276EF9"/>
<path d="M85.5 101.5H108.5V1005.5H85.5V101.5Z" fill="#F1F5FF" stroke="#276EF9"/>
<path d="M181.5 101.5H196.5V1005.5H181.5V101.5Z" fill="#FF6CEF" fill-opacity="0.097911" stroke="#FF6CEF"/>
<path d="M298.5 101.5H313.5V1005.5H298.5V101.5Z" fill="#FF6CEF" fill-opacity="0.097911" stroke="#FF6CEF"/>
<path d="M415.5 101.5H430.5V1005.5H415.5V101.5Z" fill="#FF6CEF" fill-opacity="0.097911" stroke="#FF6CEF"/>
<path d="M532.5 101.5H547.5V1005.5H532.5V101.5Z" fill="#FF6CEF" fill-opacity="0.097911" stroke="#FF6CEF"/>
<path d="M649.5 101.5H664.5V1005.5H649.5V101.5Z" fill="#FF6CEF" fill-opacity="0.097911" stroke="#FF6CEF"/>
<path d="M766.5 101.5H781.5V1005.5H766.5V101.5Z" fill="#FF6CEF" fill-opacity="0.097911" stroke="#FF6CEF"/>
<path d="M883.5 101.5H898.5V1005.5H883.5V101.5Z" fill="#FF6CEF" fill-opacity="0.097911" stroke="#FF6CEF"/>
<path d="M1000.5 101.5H1015.5V1005.5H1000.5V101.5Z" fill="#FF6CEF" fill-opacity="0.097911" stroke="#FF6CEF"/>
<path d="M1117.5 101.5H1132.5V1005.5H1117.5V101.5Z" fill="#FF6CEF" fill-opacity="0.097911" stroke="#FF6CEF"/>
<path d="M1234.5 101.5H1249.5V1005.5H1234.5V101.5Z" fill="#FF6CEF" fill-opacity="0.097911" stroke="#FF6CEF"/>
<path d="M1351.5 101.5H1366.5V1005.5H1351.5V101.5Z" fill="#FF6CEF" fill-opacity="0.097911" stroke="#FF6CEF"/>
<path d="M1438.5 101.5H1461.5V1005.5H1438.5V101.5Z" fill="#F1F5FF" stroke="#276EF9"/>
<defs>
<filter id="filter0_d_1426_18649" x="0" y="0" width="1484" height="1034" filterUnits="userSpaceOnUse" color-interpolation-filters="sRGB">
<feFlood flood-opacity="0" result="BackgroundImageFix"/>
<feColorMatrix in="SourceAlpha" type="matrix" values="0 0 0 0 0 0 0 0 0 0 0 0 0 0 0 0 0 0 127 0" result="hardAlpha"/>
<feOffset dy="6"/>
<feGaussianBlur stdDeviation="11"/>
<feColorMatrix type="matrix" values="0 0 0 0 0 0 0 0 0 0 0 0 0 0 0 0 0 0 0.167095 0"/>
<feBlend mode="normal" in2="BackgroundImageFix" result="effect1_dropShadow_1426_18649"/>
<feBlend mode="normal" in="SourceGraphic" in2="effect1_dropShadow_1426_18649" result="shape"/>
</filter>
<linearGradient id="paint0_linear_1426_18649" x1="22" y1="16" x2="22" y2="46" gradientUnits="userSpaceOnUse">
<stop stop-color="#F7F8FA"/>
<stop offset="1" stop-color="#F5F6F8"/>
</linearGradient>
</defs>
</svg>
