<svg width="1424" height="432" viewBox="0 0 1424 432" fill="none" xmlns="http://www.w3.org/2000/svg">
<path fill-rule="evenodd" clip-rule="evenodd" d="M0 0H101.027V432H0V0Z" fill="#F1F5FF"/>
<path fill-rule="evenodd" clip-rule="evenodd" d="M120.27 0H221.297V432H120.27V0Z" fill="#F1F5FF"/>
<path fill-rule="evenodd" clip-rule="evenodd" d="M240.541 0H341.568V432H240.541V0Z" fill="#F1F5FF"/>
<path fill-rule="evenodd" clip-rule="evenodd" d="M360.811 0H461.838V432H360.811V0Z" fill="#F1F5FF"/>
<path fill-rule="evenodd" clip-rule="evenodd" d="M481.081 0H582.108V432H481.081V0Z" fill="#F1F5FF"/>
<path fill-rule="evenodd" clip-rule="evenodd" d="M601.351 0H702.378V432H601.351V0Z" fill="#F1F5FF"/>
<path fill-rule="evenodd" clip-rule="evenodd" d="M721.622 0H822.649V432H721.622V0Z" fill="#F1F5FF"/>
<path fill-rule="evenodd" clip-rule="evenodd" d="M841.892 0H942.919V432H841.892V0Z" fill="#F1F5FF"/>
<path fill-rule="evenodd" clip-rule="evenodd" d="M962.162 0H1063.19V432H962.162V0Z" fill="#F1F5FF"/>
<path fill-rule="evenodd" clip-rule="evenodd" d="M1082.43 0H1183.46V432H1082.43V0Z" fill="#F1F5FF"/>
<path fill-rule="evenodd" clip-rule="evenodd" d="M1202.7 0H1303.73V432H1202.7V0Z" fill="#F1F5FF"/>
<path fill-rule="evenodd" clip-rule="evenodd" d="M1322.97 0H1424V432H1322.97V0Z" fill="#F1F5FF"/>
<rect opacity="0.2" y="16" width="702.378" height="80" fill="#C9D8FD"/>
<rect opacity="0.3" y="120" width="461.838" height="80" fill="#C9D8FD"/>
<path d="M207.338 153.44C205.978 153.44 204.878 153.82 204.038 154.6C203.158 155.38 202.638 156.46 202.518 157.84H204.138C204.238 156.88 204.558 156.14 205.118 155.62C205.658 155.1 206.398 154.86 207.358 154.86C208.278 154.86 209.018 155.08 209.538 155.56C210.018 156 210.278 156.62 210.278 157.42C210.278 158.22 210.018 158.84 209.518 159.28C209.018 159.7 208.298 159.92 207.338 159.92H206.238V161.2H207.398C208.398 161.2 209.158 161.42 209.718 161.9C210.278 162.38 210.558 163.04 210.558 163.9C210.558 164.74 210.258 165.44 209.698 166C209.078 166.58 208.258 166.88 207.238 166.88C206.338 166.88 205.598 166.62 204.998 166.14C204.298 165.56 203.918 164.7 203.878 163.58H202.218C202.338 165.18 202.898 166.4 203.918 167.24C204.778 167.92 205.878 168.28 207.238 168.28C208.718 168.28 209.918 167.86 210.838 167.02C211.738 166.2 212.198 165.14 212.198 163.84C212.198 163 211.958 162.3 211.478 161.74C211.038 161.18 210.398 160.78 209.558 160.52C211.118 160 211.898 158.92 211.898 157.32C211.898 156.12 211.478 155.18 210.658 154.48C209.818 153.78 208.698 153.44 207.338 153.44ZM219.33 153.44C217.97 153.44 216.87 153.82 216.03 154.6C215.15 155.38 214.63 156.46 214.51 157.84H216.13C216.23 156.88 216.55 156.14 217.11 155.62C217.65 155.1 218.39 154.86 219.35 154.86C220.27 154.86 221.01 155.08 221.53 155.56C222.01 156 222.27 156.62 222.27 157.42C222.27 158.22 222.01 158.84 221.51 159.28C221.01 159.7 220.29 159.92 219.33 159.92H218.23V161.2H219.39C220.39 161.2 221.15 161.42 221.71 161.9C222.27 162.38 222.55 163.04 222.55 163.9C222.55 164.74 222.25 165.44 221.69 166C221.07 166.58 220.25 166.88 219.23 166.88C218.33 166.88 217.59 166.62 216.99 166.14C216.29 165.56 215.91 164.7 215.87 163.58H214.21C214.33 165.18 214.89 166.4 215.91 167.24C216.77 167.92 217.87 168.28 219.23 168.28C220.71 168.28 221.91 167.86 222.83 167.02C223.73 166.2 224.19 165.14 224.19 163.84C224.19 163 223.95 162.3 223.47 161.74C223.03 161.18 222.39 160.78 221.55 160.52C223.11 160 223.89 158.92 223.89 157.32C223.89 156.12 223.47 155.18 222.65 154.48C221.81 153.78 220.69 153.44 219.33 153.44ZM227.822 165.62C227.462 165.62 227.182 165.74 226.962 165.98C226.722 166.22 226.602 166.5 226.602 166.86C226.602 167.2 226.722 167.48 226.962 167.72C227.182 167.96 227.462 168.08 227.822 168.08C228.142 168.08 228.442 167.96 228.682 167.72C228.922 167.48 229.042 167.2 229.042 166.86C229.042 166.5 228.922 166.22 228.682 165.98C228.442 165.74 228.142 165.62 227.822 165.62ZM236.596 153.44C235.236 153.44 234.136 153.82 233.296 154.6C232.416 155.38 231.896 156.46 231.776 157.84H233.396C233.496 156.88 233.816 156.14 234.376 155.62C234.916 155.1 235.656 154.86 236.616 154.86C237.536 154.86 238.276 155.08 238.796 155.56C239.276 156 239.536 156.62 239.536 157.42C239.536 158.22 239.276 158.84 238.776 159.28C238.276 159.7 237.556 159.92 236.596 159.92H235.496V161.2H236.656C237.656 161.2 238.416 161.42 238.976 161.9C239.536 162.38 239.816 163.04 239.816 163.9C239.816 164.74 239.516 165.44 238.956 166C238.336 166.58 237.516 166.88 236.496 166.88C235.596 166.88 234.856 166.62 234.256 166.14C233.556 165.56 233.176 164.7 233.136 163.58H231.476C231.596 165.18 232.156 166.4 233.176 167.24C234.036 167.92 235.136 168.28 236.496 168.28C237.976 168.28 239.176 167.86 240.096 167.02C240.996 166.2 241.456 165.14 241.456 163.84C241.456 163 241.216 162.3 240.736 161.74C240.296 161.18 239.656 160.78 238.816 160.52C240.376 160 241.156 158.92 241.156 157.32C241.156 156.12 240.736 155.18 239.916 154.48C239.076 153.78 237.956 153.44 236.596 153.44ZM257.228 160.18C256.148 160.18 255.328 160.56 254.768 161.36C254.248 162.04 254.008 162.96 254.008 164.1C254.008 165.22 254.248 166.12 254.768 166.84C255.328 167.6 256.148 168 257.228 168C258.288 168 259.108 167.6 259.688 166.84C260.188 166.14 260.448 165.22 260.448 164.1C260.448 162.96 260.188 162.04 259.688 161.36C259.108 160.56 258.288 160.18 257.228 160.18ZM255.508 153.44L247.488 168.28H248.788L256.788 153.44H255.508ZM247.068 153.72C245.988 153.72 245.168 154.1 244.608 154.9C244.088 155.58 243.848 156.5 243.848 157.64C243.848 158.76 244.088 159.66 244.608 160.38C245.168 161.14 245.988 161.54 247.068 161.54C248.128 161.54 248.948 161.14 249.528 160.38C250.028 159.68 250.288 158.76 250.288 157.64C250.288 156.5 250.028 155.58 249.528 154.9C248.948 154.1 248.128 153.72 247.068 153.72ZM257.228 161.26C257.828 161.26 258.268 161.54 258.568 162.12C258.808 162.6 258.948 163.26 258.948 164.1C258.948 164.92 258.808 165.56 258.568 166.04C258.268 166.62 257.828 166.92 257.228 166.92C256.608 166.92 256.168 166.62 255.888 166.06C255.628 165.58 255.508 164.92 255.508 164.1C255.508 163.24 255.628 162.58 255.888 162.1C256.168 161.54 256.608 161.26 257.228 161.26ZM247.068 154.8C247.668 154.8 248.108 155.08 248.388 155.66C248.648 156.14 248.788 156.8 248.788 157.64C248.788 158.46 248.648 159.1 248.408 159.58C248.108 160.16 247.668 160.46 247.068 160.46C246.448 160.46 246.008 160.16 245.728 159.6C245.468 159.12 245.348 158.46 245.348 157.64C245.348 156.78 245.468 156.12 245.728 155.64C246.008 155.08 246.448 154.8 247.068 154.8Z" fill="#276EF9"/>
<rect opacity="0.4" y="224" width="341.568" height="80" fill="#C9D8FD"/>
<path d="M155.896 257.44C154.456 257.44 153.276 257.92 152.396 258.88C151.516 259.82 151.056 261.1 151.056 262.7H152.696C152.716 261.44 153.016 260.48 153.576 259.84C154.096 259.16 154.856 258.84 155.836 258.84C156.756 258.84 157.496 259.08 158.016 259.56C158.536 260.04 158.796 260.7 158.796 261.58C158.796 262.5 158.416 263.36 157.696 264.14C157.316 264.54 156.576 265.12 155.456 265.92C153.936 266.96 152.916 267.82 152.356 268.46C151.396 269.52 150.936 270.7 150.936 272H160.456V270.54H152.956C153.216 269.58 154.256 268.48 156.076 267.26C157.556 266.26 158.536 265.48 159.036 264.96C159.956 263.96 160.436 262.84 160.436 261.6C160.436 260.36 159.996 259.34 159.156 258.58C158.296 257.82 157.216 257.44 155.896 257.44ZM163.788 257.72L163.028 265.6H164.588C164.868 265.04 165.308 264.6 165.868 264.32C166.408 264.02 167.008 263.88 167.688 263.88C168.728 263.88 169.548 264.18 170.128 264.82C170.728 265.44 171.048 266.32 171.048 267.46C171.048 268.46 170.708 269.28 170.068 269.92C169.408 270.56 168.588 270.88 167.588 270.88C166.708 270.88 165.968 270.66 165.408 270.24C164.768 269.76 164.408 269.06 164.328 268.16H162.708C162.808 269.46 163.348 270.5 164.348 271.26C165.228 271.94 166.308 272.28 167.568 272.28C168.968 272.28 170.168 271.84 171.128 270.98C172.148 270.06 172.668 268.88 172.668 267.44C172.668 265.9 172.228 264.7 171.388 263.82C170.548 262.96 169.448 262.54 168.088 262.54C167.428 262.54 166.828 262.64 166.268 262.88C165.648 263.12 165.128 263.48 164.728 263.96H164.648L165.128 259.18H172.088V257.72H163.788ZM188.46 264.18C187.38 264.18 186.56 264.56 186 265.36C185.48 266.04 185.24 266.96 185.24 268.1C185.24 269.22 185.48 270.12 186 270.84C186.56 271.6 187.38 272 188.46 272C189.52 272 190.34 271.6 190.92 270.84C191.42 270.14 191.68 269.22 191.68 268.1C191.68 266.96 191.42 266.04 190.92 265.36C190.34 264.56 189.52 264.18 188.46 264.18ZM186.74 257.44L178.72 272.28H180.02L188.02 257.44H186.74ZM178.3 257.72C177.22 257.72 176.4 258.1 175.84 258.9C175.32 259.58 175.08 260.5 175.08 261.64C175.08 262.76 175.32 263.66 175.84 264.38C176.4 265.14 177.22 265.54 178.3 265.54C179.36 265.54 180.18 265.14 180.76 264.38C181.26 263.68 181.52 262.76 181.52 261.64C181.52 260.5 181.26 259.58 180.76 258.9C180.18 258.1 179.36 257.72 178.3 257.72ZM188.46 265.26C189.06 265.26 189.5 265.54 189.8 266.12C190.04 266.6 190.18 267.26 190.18 268.1C190.18 268.92 190.04 269.56 189.8 270.04C189.5 270.62 189.06 270.92 188.46 270.92C187.84 270.92 187.4 270.62 187.12 270.06C186.86 269.58 186.74 268.92 186.74 268.1C186.74 267.24 186.86 266.58 187.12 266.1C187.4 265.54 187.84 265.26 188.46 265.26ZM178.3 258.8C178.9 258.8 179.34 259.08 179.62 259.66C179.88 260.14 180.02 260.8 180.02 261.64C180.02 262.46 179.88 263.1 179.64 263.58C179.34 264.16 178.9 264.46 178.3 264.46C177.68 264.46 177.24 264.16 176.96 263.6C176.7 263.12 176.58 262.46 176.58 261.64C176.58 260.78 176.7 260.12 176.96 259.64C177.24 259.08 177.68 258.8 178.3 258.8Z" fill="#276EF9"/>
<rect opacity="0.5" y="328" width="221.297" height="80" rx="4" fill="#C9D8FD"/>
<path d="M88.0375 360.72C87.5575 361.26 86.9975 361.74 86.3175 362.18C85.6375 362.58 84.9575 362.86 84.3175 363.04V364.68C85.6575 364.28 86.7775 363.64 87.6775 362.72V375H89.3175V360.72H88.0375ZM97.6648 360.44C96.0448 360.44 94.7648 361.18 93.8248 362.68C92.9248 364.1 92.4848 365.96 92.4848 368.24C92.4848 370.42 92.8848 372.12 93.7248 373.34C94.6048 374.62 95.9048 375.28 97.6448 375.28C99.0448 375.28 100.185 374.8 101.105 373.88C102.005 372.96 102.465 371.78 102.465 370.38C102.465 368.98 102.045 367.86 101.225 366.98C100.385 366.1 99.2848 365.66 97.9248 365.66C97.0848 365.66 96.3448 365.86 95.7048 366.28C95.0248 366.68 94.5248 367.26 94.1648 368H94.0848C94.0648 367.74 94.0648 367.56 94.0648 367.48C94.0648 365.86 94.3648 364.52 95.0048 363.48C95.6448 362.36 96.5248 361.82 97.6448 361.82C99.3048 361.82 100.285 362.62 100.605 364.26H102.225C101.825 361.7 100.305 360.44 97.6648 360.44ZM97.6048 367.02C98.5848 367.02 99.3648 367.32 99.9648 367.96C100.545 368.56 100.845 369.36 100.845 370.38C100.845 371.4 100.545 372.24 99.9448 372.92C99.3448 373.56 98.5648 373.9 97.6048 373.9C96.6048 373.9 95.8248 373.56 95.2248 372.88C94.6248 372.24 94.3448 371.42 94.3448 370.42C94.3448 369.42 94.6448 368.62 95.2648 367.98C95.8848 367.34 96.6648 367.02 97.6048 367.02ZM106.097 372.62C105.737 372.62 105.457 372.74 105.237 372.98C104.997 373.22 104.877 373.5 104.877 373.86C104.877 374.2 104.997 374.48 105.237 374.72C105.457 374.96 105.737 375.08 106.097 375.08C106.417 375.08 106.717 374.96 106.957 374.72C107.197 374.48 107.317 374.2 107.317 373.86C107.317 373.5 107.197 373.22 106.957 372.98C106.717 372.74 106.417 372.62 106.097 372.62ZM109.41 360.72V362.22H117.11L111.79 375H113.53L118.79 362.06V360.72H109.41ZM134.448 367.18C133.368 367.18 132.548 367.56 131.988 368.36C131.468 369.04 131.228 369.96 131.228 371.1C131.228 372.22 131.468 373.12 131.988 373.84C132.548 374.6 133.368 375 134.448 375C135.508 375 136.328 374.6 136.908 373.84C137.408 373.14 137.668 372.22 137.668 371.1C137.668 369.96 137.408 369.04 136.908 368.36C136.328 367.56 135.508 367.18 134.448 367.18ZM132.728 360.44L124.708 375.28H126.008L134.008 360.44H132.728ZM124.288 360.72C123.208 360.72 122.388 361.1 121.828 361.9C121.308 362.58 121.068 363.5 121.068 364.64C121.068 365.76 121.308 366.66 121.828 367.38C122.388 368.14 123.208 368.54 124.288 368.54C125.348 368.54 126.168 368.14 126.748 367.38C127.248 366.68 127.508 365.76 127.508 364.64C127.508 363.5 127.248 362.58 126.748 361.9C126.168 361.1 125.348 360.72 124.288 360.72ZM134.448 368.26C135.048 368.26 135.488 368.54 135.788 369.12C136.028 369.6 136.168 370.26 136.168 371.1C136.168 371.92 136.028 372.56 135.788 373.04C135.488 373.62 135.048 373.92 134.448 373.92C133.828 373.92 133.388 373.62 133.108 373.06C132.848 372.58 132.728 371.92 132.728 371.1C132.728 370.24 132.848 369.58 133.108 369.1C133.388 368.54 133.828 368.26 134.448 368.26ZM124.288 361.8C124.888 361.8 125.328 362.08 125.608 362.66C125.868 363.14 126.008 363.8 126.008 364.64C126.008 365.46 125.868 366.1 125.628 366.58C125.328 367.16 124.888 367.46 124.288 367.46C123.668 367.46 123.228 367.16 122.948 366.6C122.688 366.12 122.568 365.46 122.568 364.64C122.568 363.78 122.688 363.12 122.948 362.64C123.228 362.08 123.668 361.8 124.288 361.8Z" fill="#276EF9"/>
<rect opacity="0.5" x="240.541" y="328" width="221.297" height="80" rx="4" fill="#C9D8FD"/>
<path d="M328.578 360.72C328.098 361.26 327.538 361.74 326.858 362.18C326.178 362.58 325.498 362.86 324.858 363.04V364.68C326.198 364.28 327.318 363.64 328.218 362.72V375H329.858V360.72H328.578ZM338.205 360.44C336.585 360.44 335.305 361.18 334.365 362.68C333.465 364.1 333.025 365.96 333.025 368.24C333.025 370.42 333.425 372.12 334.265 373.34C335.145 374.62 336.445 375.28 338.185 375.28C339.585 375.28 340.725 374.8 341.645 373.88C342.545 372.96 343.005 371.78 343.005 370.38C343.005 368.98 342.585 367.86 341.765 366.98C340.925 366.1 339.825 365.66 338.465 365.66C337.625 365.66 336.885 365.86 336.245 366.28C335.565 366.68 335.065 367.26 334.705 368H334.625C334.605 367.74 334.605 367.56 334.605 367.48C334.605 365.86 334.905 364.52 335.545 363.48C336.185 362.36 337.065 361.82 338.185 361.82C339.845 361.82 340.825 362.62 341.145 364.26H342.765C342.365 361.7 340.845 360.44 338.205 360.44ZM338.145 367.02C339.125 367.02 339.905 367.32 340.505 367.96C341.085 368.56 341.385 369.36 341.385 370.38C341.385 371.4 341.085 372.24 340.485 372.92C339.885 373.56 339.105 373.9 338.145 373.9C337.145 373.9 336.365 373.56 335.765 372.88C335.165 372.24 334.885 371.42 334.885 370.42C334.885 369.42 335.185 368.62 335.805 367.98C336.425 367.34 337.205 367.02 338.145 367.02ZM346.638 372.62C346.278 372.62 345.998 372.74 345.778 372.98C345.538 373.22 345.418 373.5 345.418 373.86C345.418 374.2 345.538 374.48 345.778 374.72C345.998 374.96 346.278 375.08 346.638 375.08C346.958 375.08 347.258 374.96 347.498 374.72C347.738 374.48 347.858 374.2 347.858 373.86C347.858 373.5 347.738 373.22 347.498 372.98C347.258 372.74 346.958 372.62 346.638 372.62ZM349.951 360.72V362.22H357.651L352.331 375H354.071L359.331 362.06V360.72H349.951ZM374.988 367.18C373.908 367.18 373.088 367.56 372.528 368.36C372.008 369.04 371.768 369.96 371.768 371.1C371.768 372.22 372.008 373.12 372.528 373.84C373.088 374.6 373.908 375 374.988 375C376.048 375 376.868 374.6 377.448 373.84C377.948 373.14 378.208 372.22 378.208 371.1C378.208 369.96 377.948 369.04 377.448 368.36C376.868 367.56 376.048 367.18 374.988 367.18ZM373.268 360.44L365.248 375.28H366.548L374.548 360.44H373.268ZM364.828 360.72C363.748 360.72 362.928 361.1 362.368 361.9C361.848 362.58 361.608 363.5 361.608 364.64C361.608 365.76 361.848 366.66 362.368 367.38C362.928 368.14 363.748 368.54 364.828 368.54C365.888 368.54 366.708 368.14 367.288 367.38C367.788 366.68 368.048 365.76 368.048 364.64C368.048 363.5 367.788 362.58 367.288 361.9C366.708 361.1 365.888 360.72 364.828 360.72ZM374.988 368.26C375.588 368.26 376.028 368.54 376.328 369.12C376.568 369.6 376.708 370.26 376.708 371.1C376.708 371.92 376.568 372.56 376.328 373.04C376.028 373.62 375.588 373.92 374.988 373.92C374.368 373.92 373.928 373.62 373.648 373.06C373.388 372.58 373.268 371.92 373.268 371.1C373.268 370.24 373.388 369.58 373.648 369.1C373.928 368.54 374.368 368.26 374.988 368.26ZM364.828 361.8C365.428 361.8 365.868 362.08 366.148 362.66C366.408 363.14 366.548 363.8 366.548 364.64C366.548 365.46 366.408 366.1 366.168 366.58C365.868 367.16 365.428 367.46 364.828 367.46C364.208 367.46 363.768 367.16 363.488 366.6C363.228 366.12 363.108 365.46 363.108 364.64C363.108 363.78 363.228 363.12 363.488 362.64C363.768 362.08 364.208 361.8 364.828 361.8Z" fill="#276EF9"/>
<rect opacity="0.5" x="481.081" y="328" width="221.297" height="80" rx="4" fill="#C9D8FD"/>
<path d="M569.119 360.72C568.639 361.26 568.079 361.74 567.399 362.18C566.719 362.58 566.039 362.86 565.399 363.04V364.68C566.739 364.28 567.859 363.64 568.759 362.72V375H570.399V360.72H569.119ZM578.746 360.44C577.126 360.44 575.846 361.18 574.906 362.68C574.006 364.1 573.566 365.96 573.566 368.24C573.566 370.42 573.966 372.12 574.806 373.34C575.686 374.62 576.986 375.28 578.726 375.28C580.126 375.28 581.266 374.8 582.186 373.88C583.086 372.96 583.546 371.78 583.546 370.38C583.546 368.98 583.126 367.86 582.306 366.98C581.466 366.1 580.366 365.66 579.006 365.66C578.166 365.66 577.426 365.86 576.786 366.28C576.106 366.68 575.606 367.26 575.246 368H575.166C575.146 367.74 575.146 367.56 575.146 367.48C575.146 365.86 575.446 364.52 576.086 363.48C576.726 362.36 577.606 361.82 578.726 361.82C580.386 361.82 581.366 362.62 581.686 364.26H583.306C582.906 361.7 581.386 360.44 578.746 360.44ZM578.686 367.02C579.666 367.02 580.446 367.32 581.046 367.96C581.626 368.56 581.926 369.36 581.926 370.38C581.926 371.4 581.626 372.24 581.026 372.92C580.426 373.56 579.646 373.9 578.686 373.9C577.686 373.9 576.906 373.56 576.306 372.88C575.706 372.24 575.426 371.42 575.426 370.42C575.426 369.42 575.726 368.62 576.346 367.98C576.966 367.34 577.746 367.02 578.686 367.02ZM587.178 372.62C586.818 372.62 586.538 372.74 586.318 372.98C586.078 373.22 585.958 373.5 585.958 373.86C585.958 374.2 586.078 374.48 586.318 374.72C586.538 374.96 586.818 375.08 587.178 375.08C587.498 375.08 587.798 374.96 588.038 374.72C588.278 374.48 588.398 374.2 588.398 373.86C588.398 373.5 588.278 373.22 588.038 372.98C587.798 372.74 587.498 372.62 587.178 372.62ZM590.492 360.72V362.22H598.192L592.872 375H594.612L599.872 362.06V360.72H590.492ZM615.529 367.18C614.449 367.18 613.629 367.56 613.069 368.36C612.549 369.04 612.309 369.96 612.309 371.1C612.309 372.22 612.549 373.12 613.069 373.84C613.629 374.6 614.449 375 615.529 375C616.589 375 617.409 374.6 617.989 373.84C618.489 373.14 618.749 372.22 618.749 371.1C618.749 369.96 618.489 369.04 617.989 368.36C617.409 367.56 616.589 367.18 615.529 367.18ZM613.809 360.44L605.789 375.28H607.089L615.089 360.44H613.809ZM605.369 360.72C604.289 360.72 603.469 361.1 602.909 361.9C602.389 362.58 602.149 363.5 602.149 364.64C602.149 365.76 602.389 366.66 602.909 367.38C603.469 368.14 604.289 368.54 605.369 368.54C606.429 368.54 607.249 368.14 607.829 367.38C608.329 366.68 608.589 365.76 608.589 364.64C608.589 363.5 608.329 362.58 607.829 361.9C607.249 361.1 606.429 360.72 605.369 360.72ZM615.529 368.26C616.129 368.26 616.569 368.54 616.869 369.12C617.109 369.6 617.249 370.26 617.249 371.1C617.249 371.92 617.109 372.56 616.869 373.04C616.569 373.62 616.129 373.92 615.529 373.92C614.909 373.92 614.469 373.62 614.189 373.06C613.929 372.58 613.809 371.92 613.809 371.1C613.809 370.24 613.929 369.58 614.189 369.1C614.469 368.54 614.909 368.26 615.529 368.26ZM605.369 361.8C605.969 361.8 606.409 362.08 606.689 362.66C606.949 363.14 607.089 363.8 607.089 364.64C607.089 365.46 606.949 366.1 606.709 366.58C606.409 367.16 605.969 367.46 605.369 367.46C604.749 367.46 604.309 367.16 604.029 366.6C603.769 366.12 603.649 365.46 603.649 364.64C603.649 363.78 603.769 363.12 604.029 362.64C604.309 362.08 604.749 361.8 605.369 361.8Z" fill="#276EF9"/>
<rect opacity="0.5" x="721.622" y="328" width="221.297" height="80" rx="4" fill="#C9D8FD"/>
<path d="M809.659 360.72C809.179 361.26 808.619 361.74 807.939 362.18C807.259 362.58 806.579 362.86 805.939 363.04V364.68C807.279 364.28 808.399 363.64 809.299 362.72V375H810.939V360.72H809.659ZM819.286 360.44C817.666 360.44 816.386 361.18 815.446 362.68C814.546 364.1 814.106 365.96 814.106 368.24C814.106 370.42 814.506 372.12 815.346 373.34C816.226 374.62 817.526 375.28 819.266 375.28C820.666 375.28 821.806 374.8 822.726 373.88C823.626 372.96 824.086 371.78 824.086 370.38C824.086 368.98 823.666 367.86 822.846 366.98C822.006 366.1 820.906 365.66 819.546 365.66C818.706 365.66 817.966 365.86 817.326 366.28C816.646 366.68 816.146 367.26 815.786 368H815.706C815.686 367.74 815.686 367.56 815.686 367.48C815.686 365.86 815.986 364.52 816.626 363.48C817.266 362.36 818.146 361.82 819.266 361.82C820.926 361.82 821.906 362.62 822.226 364.26H823.846C823.446 361.7 821.926 360.44 819.286 360.44ZM819.226 367.02C820.206 367.02 820.986 367.32 821.586 367.96C822.166 368.56 822.466 369.36 822.466 370.38C822.466 371.4 822.166 372.24 821.566 372.92C820.966 373.56 820.186 373.9 819.226 373.9C818.226 373.9 817.446 373.56 816.846 372.88C816.246 372.24 815.966 371.42 815.966 370.42C815.966 369.42 816.266 368.62 816.886 367.98C817.506 367.34 818.286 367.02 819.226 367.02ZM827.719 372.62C827.359 372.62 827.079 372.74 826.859 372.98C826.619 373.22 826.499 373.5 826.499 373.86C826.499 374.2 826.619 374.48 826.859 374.72C827.079 374.96 827.359 375.08 827.719 375.08C828.039 375.08 828.339 374.96 828.579 374.72C828.819 374.48 828.939 374.2 828.939 373.86C828.939 373.5 828.819 373.22 828.579 372.98C828.339 372.74 828.039 372.62 827.719 372.62ZM831.032 360.72V362.22H838.732L833.412 375H835.152L840.412 362.06V360.72H831.032ZM856.07 367.18C854.99 367.18 854.17 367.56 853.61 368.36C853.09 369.04 852.85 369.96 852.85 371.1C852.85 372.22 853.09 373.12 853.61 373.84C854.17 374.6 854.99 375 856.07 375C857.13 375 857.95 374.6 858.53 373.84C859.03 373.14 859.29 372.22 859.29 371.1C859.29 369.96 859.03 369.04 858.53 368.36C857.95 367.56 857.13 367.18 856.07 367.18ZM854.35 360.44L846.33 375.28H847.63L855.63 360.44H854.35ZM845.91 360.72C844.83 360.72 844.01 361.1 843.45 361.9C842.93 362.58 842.69 363.5 842.69 364.64C842.69 365.76 842.93 366.66 843.45 367.38C844.01 368.14 844.83 368.54 845.91 368.54C846.97 368.54 847.79 368.14 848.37 367.38C848.87 366.68 849.13 365.76 849.13 364.64C849.13 363.5 848.87 362.58 848.37 361.9C847.79 361.1 846.97 360.72 845.91 360.72ZM856.07 368.26C856.67 368.26 857.11 368.54 857.41 369.12C857.65 369.6 857.79 370.26 857.79 371.1C857.79 371.92 857.65 372.56 857.41 373.04C857.11 373.62 856.67 373.92 856.07 373.92C855.45 373.92 855.01 373.62 854.73 373.06C854.47 372.58 854.35 371.92 854.35 371.1C854.35 370.24 854.47 369.58 854.73 369.1C855.01 368.54 855.45 368.26 856.07 368.26ZM845.91 361.8C846.51 361.8 846.95 362.08 847.23 362.66C847.49 363.14 847.63 363.8 847.63 364.64C847.63 365.46 847.49 366.1 847.25 366.58C846.95 367.16 846.51 367.46 845.91 367.46C845.29 367.46 844.85 367.16 844.57 366.6C844.31 366.12 844.19 365.46 844.19 364.64C844.19 363.78 844.31 363.12 844.57 362.64C844.85 362.08 845.29 361.8 845.91 361.8Z" fill="#276EF9"/>
<rect opacity="0.5" x="962.162" y="328" width="221.297" height="80" rx="4" fill="#C9D8FD"/>
<path d="M1050.2 360.72C1049.72 361.26 1049.16 361.74 1048.48 362.18C1047.8 362.58 1047.12 362.86 1046.48 363.04V364.68C1047.82 364.28 1048.94 363.64 1049.84 362.72V375H1051.48V360.72H1050.2ZM1059.83 360.44C1058.21 360.44 1056.93 361.18 1055.99 362.68C1055.09 364.1 1054.65 365.96 1054.65 368.24C1054.65 370.42 1055.05 372.12 1055.89 373.34C1056.77 374.62 1058.07 375.28 1059.81 375.28C1061.21 375.28 1062.35 374.8 1063.27 373.88C1064.17 372.96 1064.63 371.78 1064.63 370.38C1064.63 368.98 1064.21 367.86 1063.39 366.98C1062.55 366.1 1061.45 365.66 1060.09 365.66C1059.25 365.66 1058.51 365.86 1057.87 366.28C1057.19 366.68 1056.69 367.26 1056.33 368H1056.25C1056.23 367.74 1056.23 367.56 1056.23 367.48C1056.23 365.86 1056.53 364.52 1057.17 363.48C1057.81 362.36 1058.69 361.82 1059.81 361.82C1061.47 361.82 1062.45 362.62 1062.77 364.26H1064.39C1063.99 361.7 1062.47 360.44 1059.83 360.44ZM1059.77 367.02C1060.75 367.02 1061.53 367.32 1062.13 367.96C1062.71 368.56 1063.01 369.36 1063.01 370.38C1063.01 371.4 1062.71 372.24 1062.11 372.92C1061.51 373.56 1060.73 373.9 1059.77 373.9C1058.77 373.9 1057.99 373.56 1057.39 372.88C1056.79 372.24 1056.51 371.42 1056.51 370.42C1056.51 369.42 1056.81 368.62 1057.43 367.98C1058.05 367.34 1058.83 367.02 1059.77 367.02ZM1068.26 372.62C1067.9 372.62 1067.62 372.74 1067.4 372.98C1067.16 373.22 1067.04 373.5 1067.04 373.86C1067.04 374.2 1067.16 374.48 1067.4 374.72C1067.62 374.96 1067.9 375.08 1068.26 375.08C1068.58 375.08 1068.88 374.96 1069.12 374.72C1069.36 374.48 1069.48 374.2 1069.48 373.86C1069.48 373.5 1069.36 373.22 1069.12 372.98C1068.88 372.74 1068.58 372.62 1068.26 372.62ZM1071.57 360.72V362.22H1079.27L1073.95 375H1075.69L1080.95 362.06V360.72H1071.57ZM1096.61 367.18C1095.53 367.18 1094.71 367.56 1094.15 368.36C1093.63 369.04 1093.39 369.96 1093.39 371.1C1093.39 372.22 1093.63 373.12 1094.15 373.84C1094.71 374.6 1095.53 375 1096.61 375C1097.67 375 1098.49 374.6 1099.07 373.84C1099.57 373.14 1099.83 372.22 1099.83 371.1C1099.83 369.96 1099.57 369.04 1099.07 368.36C1098.49 367.56 1097.67 367.18 1096.61 367.18ZM1094.89 360.44L1086.87 375.28H1088.17L1096.17 360.44H1094.89ZM1086.45 360.72C1085.37 360.72 1084.55 361.1 1083.99 361.9C1083.47 362.58 1083.23 363.5 1083.23 364.64C1083.23 365.76 1083.47 366.66 1083.99 367.38C1084.55 368.14 1085.37 368.54 1086.45 368.54C1087.51 368.54 1088.33 368.14 1088.91 367.38C1089.41 366.68 1089.67 365.76 1089.67 364.64C1089.67 363.5 1089.41 362.58 1088.91 361.9C1088.33 361.1 1087.51 360.72 1086.45 360.72ZM1096.61 368.26C1097.21 368.26 1097.65 368.54 1097.95 369.12C1098.19 369.6 1098.33 370.26 1098.33 371.1C1098.33 371.92 1098.19 372.56 1097.95 373.04C1097.65 373.62 1097.21 373.92 1096.61 373.92C1095.99 373.92 1095.55 373.62 1095.27 373.06C1095.01 372.58 1094.89 371.92 1094.89 371.1C1094.89 370.24 1095.01 369.58 1095.27 369.1C1095.55 368.54 1095.99 368.26 1096.61 368.26ZM1086.45 361.8C1087.05 361.8 1087.49 362.08 1087.77 362.66C1088.03 363.14 1088.17 363.8 1088.17 364.64C1088.17 365.46 1088.03 366.1 1087.79 366.58C1087.49 367.16 1087.05 367.46 1086.45 367.46C1085.83 367.46 1085.39 367.16 1085.11 366.6C1084.85 366.12 1084.73 365.46 1084.73 364.64C1084.73 363.78 1084.85 363.12 1085.11 362.64C1085.39 362.08 1085.83 361.8 1086.45 361.8Z" fill="#276EF9"/>
<rect opacity="0.5" x="1202.7" y="328" width="221.297" height="80" rx="4" fill="#C9D8FD"/>
<path d="M1290.74 360.72C1290.26 361.26 1289.7 361.74 1289.02 362.18C1288.34 362.58 1287.66 362.86 1287.02 363.04V364.68C1288.36 364.28 1289.48 363.64 1290.38 362.72V375H1292.02V360.72H1290.74ZM1300.37 360.44C1298.75 360.44 1297.47 361.18 1296.53 362.68C1295.63 364.1 1295.19 365.96 1295.19 368.24C1295.19 370.42 1295.59 372.12 1296.43 373.34C1297.31 374.62 1298.61 375.28 1300.35 375.28C1301.75 375.28 1302.89 374.8 1303.81 373.88C1304.71 372.96 1305.17 371.78 1305.17 370.38C1305.17 368.98 1304.75 367.86 1303.93 366.98C1303.09 366.1 1301.99 365.66 1300.63 365.66C1299.79 365.66 1299.05 365.86 1298.41 366.28C1297.73 366.68 1297.23 367.26 1296.87 368H1296.79C1296.77 367.74 1296.77 367.56 1296.77 367.48C1296.77 365.86 1297.07 364.52 1297.71 363.48C1298.35 362.36 1299.23 361.82 1300.35 361.82C1302.01 361.82 1302.99 362.62 1303.31 364.26H1304.93C1304.53 361.7 1303.01 360.44 1300.37 360.44ZM1300.31 367.02C1301.29 367.02 1302.07 367.32 1302.67 367.96C1303.25 368.56 1303.55 369.36 1303.55 370.38C1303.55 371.4 1303.25 372.24 1302.65 372.92C1302.05 373.56 1301.27 373.9 1300.31 373.9C1299.31 373.9 1298.53 373.56 1297.93 372.88C1297.33 372.24 1297.05 371.42 1297.05 370.42C1297.05 369.42 1297.35 368.62 1297.97 367.98C1298.59 367.34 1299.37 367.02 1300.31 367.02ZM1308.8 372.62C1308.44 372.62 1308.16 372.74 1307.94 372.98C1307.7 373.22 1307.58 373.5 1307.58 373.86C1307.58 374.2 1307.7 374.48 1307.94 374.72C1308.16 374.96 1308.44 375.08 1308.8 375.08C1309.12 375.08 1309.42 374.96 1309.66 374.72C1309.9 374.48 1310.02 374.2 1310.02 373.86C1310.02 373.5 1309.9 373.22 1309.66 372.98C1309.42 372.74 1309.12 372.62 1308.8 372.62ZM1312.11 360.72V362.22H1319.81L1314.49 375H1316.23L1321.49 362.06V360.72H1312.11ZM1337.15 367.18C1336.07 367.18 1335.25 367.56 1334.69 368.36C1334.17 369.04 1333.93 369.96 1333.93 371.1C1333.93 372.22 1334.17 373.12 1334.69 373.84C1335.25 374.6 1336.07 375 1337.15 375C1338.21 375 1339.03 374.6 1339.61 373.84C1340.11 373.14 1340.37 372.22 1340.37 371.1C1340.37 369.96 1340.11 369.04 1339.61 368.36C1339.03 367.56 1338.21 367.18 1337.15 367.18ZM1335.43 360.44L1327.41 375.28H1328.71L1336.71 360.44H1335.43ZM1326.99 360.72C1325.91 360.72 1325.09 361.1 1324.53 361.9C1324.01 362.58 1323.77 363.5 1323.77 364.64C1323.77 365.76 1324.01 366.66 1324.53 367.38C1325.09 368.14 1325.91 368.54 1326.99 368.54C1328.05 368.54 1328.87 368.14 1329.45 367.38C1329.95 366.68 1330.21 365.76 1330.21 364.64C1330.21 363.5 1329.95 362.58 1329.45 361.9C1328.87 361.1 1328.05 360.72 1326.99 360.72ZM1337.15 368.26C1337.75 368.26 1338.19 368.54 1338.49 369.12C1338.73 369.6 1338.87 370.26 1338.87 371.1C1338.87 371.92 1338.73 372.56 1338.49 373.04C1338.19 373.62 1337.75 373.92 1337.15 373.92C1336.53 373.92 1336.09 373.62 1335.81 373.06C1335.55 372.58 1335.43 371.92 1335.43 371.1C1335.43 370.24 1335.55 369.58 1335.81 369.1C1336.09 368.54 1336.53 368.26 1337.15 368.26ZM1326.99 361.8C1327.59 361.8 1328.03 362.08 1328.31 362.66C1328.57 363.14 1328.71 363.8 1328.71 364.64C1328.71 365.46 1328.57 366.1 1328.33 366.58C1328.03 367.16 1327.59 367.46 1326.99 367.46C1326.37 367.46 1325.93 367.16 1325.65 366.6C1325.39 366.12 1325.27 365.46 1325.27 364.64C1325.27 363.78 1325.39 363.12 1325.65 362.64C1325.93 362.08 1326.37 361.8 1326.99 361.8Z" fill="#276EF9"/>
<rect opacity="0.4" x="360.811" y="224" width="341.568" height="80" fill="#C9D8FD"/>
<path d="M516.706 257.44C515.266 257.44 514.086 257.92 513.206 258.88C512.326 259.82 511.866 261.1 511.866 262.7H513.506C513.526 261.44 513.826 260.48 514.386 259.84C514.906 259.16 515.666 258.84 516.646 258.84C517.566 258.84 518.306 259.08 518.826 259.56C519.346 260.04 519.606 260.7 519.606 261.58C519.606 262.5 519.226 263.36 518.506 264.14C518.126 264.54 517.386 265.12 516.266 265.92C514.746 266.96 513.726 267.82 513.166 268.46C512.206 269.52 511.746 270.7 511.746 272H521.266V270.54H513.766C514.026 269.58 515.066 268.48 516.886 267.26C518.366 266.26 519.346 265.48 519.846 264.96C520.766 263.96 521.246 262.84 521.246 261.6C521.246 260.36 520.806 259.34 519.966 258.58C519.106 257.82 518.026 257.44 516.706 257.44ZM524.599 257.72L523.839 265.6H525.399C525.679 265.04 526.119 264.6 526.679 264.32C527.219 264.02 527.819 263.88 528.499 263.88C529.539 263.88 530.359 264.18 530.939 264.82C531.539 265.44 531.859 266.32 531.859 267.46C531.859 268.46 531.519 269.28 530.879 269.92C530.219 270.56 529.399 270.88 528.399 270.88C527.519 270.88 526.779 270.66 526.219 270.24C525.579 269.76 525.219 269.06 525.139 268.16H523.519C523.619 269.46 524.159 270.5 525.159 271.26C526.039 271.94 527.119 272.28 528.379 272.28C529.779 272.28 530.979 271.84 531.939 270.98C532.959 270.06 533.479 268.88 533.479 267.44C533.479 265.9 533.039 264.7 532.199 263.82C531.359 262.96 530.259 262.54 528.899 262.54C528.239 262.54 527.639 262.64 527.079 262.88C526.459 263.12 525.939 263.48 525.539 263.96H525.459L525.939 259.18H532.899V257.72H524.599ZM549.271 264.18C548.191 264.18 547.371 264.56 546.811 265.36C546.291 266.04 546.051 266.96 546.051 268.1C546.051 269.22 546.291 270.12 546.811 270.84C547.371 271.6 548.191 272 549.271 272C550.331 272 551.151 271.6 551.731 270.84C552.231 270.14 552.491 269.22 552.491 268.1C552.491 266.96 552.231 266.04 551.731 265.36C551.151 264.56 550.331 264.18 549.271 264.18ZM547.551 257.44L539.531 272.28H540.831L548.831 257.44H547.551ZM539.111 257.72C538.031 257.72 537.211 258.1 536.651 258.9C536.131 259.58 535.891 260.5 535.891 261.64C535.891 262.76 536.131 263.66 536.651 264.38C537.211 265.14 538.031 265.54 539.111 265.54C540.171 265.54 540.991 265.14 541.571 264.38C542.071 263.68 542.331 262.76 542.331 261.64C542.331 260.5 542.071 259.58 541.571 258.9C540.991 258.1 540.171 257.72 539.111 257.72ZM549.271 265.26C549.871 265.26 550.311 265.54 550.611 266.12C550.851 266.6 550.991 267.26 550.991 268.1C550.991 268.92 550.851 269.56 550.611 270.04C550.311 270.62 549.871 270.92 549.271 270.92C548.651 270.92 548.211 270.62 547.931 270.06C547.671 269.58 547.551 268.92 547.551 268.1C547.551 267.24 547.671 266.58 547.931 266.1C548.211 265.54 548.651 265.26 549.271 265.26ZM539.111 258.8C539.711 258.8 540.151 259.08 540.431 259.66C540.691 260.14 540.831 260.8 540.831 261.64C540.831 262.46 540.691 263.1 540.451 263.58C540.151 264.16 539.711 264.46 539.111 264.46C538.491 264.46 538.051 264.16 537.771 263.6C537.511 263.12 537.391 262.46 537.391 261.64C537.391 260.78 537.511 260.12 537.771 259.64C538.051 259.08 538.491 258.8 539.111 258.8Z" fill="#276EF9"/>
<rect opacity="0.4" x="721.622" y="224" width="341.568" height="80" fill="#C9D8FD"/>
<path d="M877.517 257.44C876.077 257.44 874.897 257.92 874.017 258.88C873.137 259.82 872.677 261.1 872.677 262.7H874.317C874.337 261.44 874.637 260.48 875.197 259.84C875.717 259.16 876.477 258.84 877.457 258.84C878.377 258.84 879.117 259.08 879.637 259.56C880.157 260.04 880.417 260.7 880.417 261.58C880.417 262.5 880.037 263.36 879.317 264.14C878.937 264.54 878.197 265.12 877.077 265.92C875.557 266.96 874.537 267.82 873.977 268.46C873.017 269.52 872.557 270.7 872.557 272H882.077V270.54H874.577C874.837 269.58 875.877 268.48 877.697 267.26C879.177 266.26 880.157 265.48 880.657 264.96C881.577 263.96 882.057 262.84 882.057 261.6C882.057 260.36 881.617 259.34 880.777 258.58C879.917 257.82 878.837 257.44 877.517 257.44ZM885.409 257.72L884.649 265.6H886.209C886.489 265.04 886.929 264.6 887.489 264.32C888.029 264.02 888.629 263.88 889.309 263.88C890.349 263.88 891.169 264.18 891.749 264.82C892.349 265.44 892.669 266.32 892.669 267.46C892.669 268.46 892.329 269.28 891.689 269.92C891.029 270.56 890.209 270.88 889.209 270.88C888.329 270.88 887.589 270.66 887.029 270.24C886.389 269.76 886.029 269.06 885.949 268.16H884.329C884.429 269.46 884.969 270.5 885.969 271.26C886.849 271.94 887.929 272.28 889.189 272.28C890.589 272.28 891.789 271.84 892.749 270.98C893.769 270.06 894.289 268.88 894.289 267.44C894.289 265.9 893.849 264.7 893.009 263.82C892.169 262.96 891.069 262.54 889.709 262.54C889.049 262.54 888.449 262.64 887.889 262.88C887.269 263.12 886.749 263.48 886.349 263.96H886.269L886.749 259.18H893.709V257.72H885.409ZM910.082 264.18C909.002 264.18 908.182 264.56 907.622 265.36C907.102 266.04 906.862 266.96 906.862 268.1C906.862 269.22 907.102 270.12 907.622 270.84C908.182 271.6 909.002 272 910.082 272C911.142 272 911.962 271.6 912.542 270.84C913.042 270.14 913.302 269.22 913.302 268.1C913.302 266.96 913.042 266.04 912.542 265.36C911.962 264.56 911.142 264.18 910.082 264.18ZM908.362 257.44L900.342 272.28H901.642L909.642 257.44H908.362ZM899.922 257.72C898.842 257.72 898.022 258.1 897.462 258.9C896.942 259.58 896.702 260.5 896.702 261.64C896.702 262.76 896.942 263.66 897.462 264.38C898.022 265.14 898.842 265.54 899.922 265.54C900.982 265.54 901.802 265.14 902.382 264.38C902.882 263.68 903.142 262.76 903.142 261.64C903.142 260.5 902.882 259.58 902.382 258.9C901.802 258.1 900.982 257.72 899.922 257.72ZM910.082 265.26C910.682 265.26 911.122 265.54 911.422 266.12C911.662 266.6 911.802 267.26 911.802 268.1C911.802 268.92 911.662 269.56 911.422 270.04C911.122 270.62 910.682 270.92 910.082 270.92C909.462 270.92 909.022 270.62 908.742 270.06C908.482 269.58 908.362 268.92 908.362 268.1C908.362 267.24 908.482 266.58 908.742 266.1C909.022 265.54 909.462 265.26 910.082 265.26ZM899.922 258.8C900.522 258.8 900.962 259.08 901.242 259.66C901.502 260.14 901.642 260.8 901.642 261.64C901.642 262.46 901.502 263.1 901.262 263.58C900.962 264.16 900.522 264.46 899.922 264.46C899.302 264.46 898.862 264.16 898.582 263.6C898.322 263.12 898.202 262.46 898.202 261.64C898.202 260.78 898.322 260.12 898.582 259.64C898.862 259.08 899.302 258.8 899.922 258.8Z" fill="#276EF9"/>
<rect opacity="0.4" x="1082.43" y="224" width="341.568" height="80" fill="#C9D8FD"/>
<path d="M1238.33 257.44C1236.89 257.44 1235.71 257.92 1234.83 258.88C1233.95 259.82 1233.49 261.1 1233.49 262.7H1235.13C1235.15 261.44 1235.45 260.48 1236.01 259.84C1236.53 259.16 1237.29 258.84 1238.27 258.84C1239.19 258.84 1239.93 259.08 1240.45 259.56C1240.97 260.04 1241.23 260.7 1241.23 261.58C1241.23 262.5 1240.85 263.36 1240.13 264.14C1239.75 264.54 1239.01 265.12 1237.89 265.92C1236.37 266.96 1235.35 267.82 1234.79 268.46C1233.83 269.52 1233.37 270.7 1233.37 272H1242.89V270.54H1235.39C1235.65 269.58 1236.69 268.48 1238.51 267.26C1239.99 266.26 1240.97 265.48 1241.47 264.96C1242.39 263.96 1242.87 262.84 1242.87 261.6C1242.87 260.36 1242.43 259.34 1241.59 258.58C1240.73 257.82 1239.65 257.44 1238.33 257.44ZM1246.22 257.72L1245.46 265.6H1247.02C1247.3 265.04 1247.74 264.6 1248.3 264.32C1248.84 264.02 1249.44 263.88 1250.12 263.88C1251.16 263.88 1251.98 264.18 1252.56 264.82C1253.16 265.44 1253.48 266.32 1253.48 267.46C1253.48 268.46 1253.14 269.28 1252.5 269.92C1251.84 270.56 1251.02 270.88 1250.02 270.88C1249.14 270.88 1248.4 270.66 1247.84 270.24C1247.2 269.76 1246.84 269.06 1246.76 268.16H1245.14C1245.24 269.46 1245.78 270.5 1246.78 271.26C1247.66 271.94 1248.74 272.28 1250 272.28C1251.4 272.28 1252.6 271.84 1253.56 270.98C1254.58 270.06 1255.1 268.88 1255.1 267.44C1255.1 265.9 1254.66 264.7 1253.82 263.82C1252.98 262.96 1251.88 262.54 1250.52 262.54C1249.86 262.54 1249.26 262.64 1248.7 262.88C1248.08 263.12 1247.56 263.48 1247.16 263.96H1247.08L1247.56 259.18H1254.52V257.72H1246.22ZM1270.89 264.18C1269.81 264.18 1268.99 264.56 1268.43 265.36C1267.91 266.04 1267.67 266.96 1267.67 268.1C1267.67 269.22 1267.91 270.12 1268.43 270.84C1268.99 271.6 1269.81 272 1270.89 272C1271.95 272 1272.77 271.6 1273.35 270.84C1273.85 270.14 1274.11 269.22 1274.11 268.1C1274.11 266.96 1273.85 266.04 1273.35 265.36C1272.77 264.56 1271.95 264.18 1270.89 264.18ZM1269.17 257.44L1261.15 272.28H1262.45L1270.45 257.44H1269.17ZM1260.73 257.72C1259.65 257.72 1258.83 258.1 1258.27 258.9C1257.75 259.58 1257.51 260.5 1257.51 261.64C1257.51 262.76 1257.75 263.66 1258.27 264.38C1258.83 265.14 1259.65 265.54 1260.73 265.54C1261.79 265.54 1262.61 265.14 1263.19 264.38C1263.69 263.68 1263.95 262.76 1263.95 261.64C1263.95 260.5 1263.69 259.58 1263.19 258.9C1262.61 258.1 1261.79 257.72 1260.73 257.72ZM1270.89 265.26C1271.49 265.26 1271.93 265.54 1272.23 266.12C1272.47 266.6 1272.61 267.26 1272.61 268.1C1272.61 268.92 1272.47 269.56 1272.23 270.04C1271.93 270.62 1271.49 270.92 1270.89 270.92C1270.27 270.92 1269.83 270.62 1269.55 270.06C1269.29 269.58 1269.17 268.92 1269.17 268.1C1269.17 267.24 1269.29 266.58 1269.55 266.1C1269.83 265.54 1270.27 265.26 1270.89 265.26ZM1260.73 258.8C1261.33 258.8 1261.77 259.08 1262.05 259.66C1262.31 260.14 1262.45 260.8 1262.45 261.64C1262.45 262.46 1262.31 263.1 1262.07 263.58C1261.77 264.16 1261.33 264.46 1260.73 264.46C1260.11 264.46 1259.67 264.16 1259.39 263.6C1259.13 263.12 1259.01 262.46 1259.01 261.64C1259.01 260.78 1259.13 260.12 1259.39 259.64C1259.67 259.08 1260.11 258.8 1260.73 258.8Z" fill="#276EF9"/>
<rect opacity="0.3" x="481.081" y="120" width="461.838" height="80" fill="#C9D8FD"/>
<path d="M688.419 153.44C687.059 153.44 685.959 153.82 685.119 154.6C684.239 155.38 683.719 156.46 683.599 157.84H685.219C685.319 156.88 685.639 156.14 686.199 155.62C686.739 155.1 687.479 154.86 688.439 154.86C689.359 154.86 690.099 155.08 690.619 155.56C691.099 156 691.359 156.62 691.359 157.42C691.359 158.22 691.099 158.84 690.599 159.28C690.099 159.7 689.379 159.92 688.419 159.92H687.319V161.2H688.479C689.479 161.2 690.239 161.42 690.799 161.9C691.359 162.38 691.639 163.04 691.639 163.9C691.639 164.74 691.339 165.44 690.779 166C690.159 166.58 689.339 166.88 688.319 166.88C687.419 166.88 686.679 166.62 686.079 166.14C685.379 165.56 684.999 164.7 684.959 163.58H683.299C683.419 165.18 683.979 166.4 684.999 167.24C685.859 167.92 686.959 168.28 688.319 168.28C689.799 168.28 690.999 167.86 691.919 167.02C692.819 166.2 693.279 165.14 693.279 163.84C693.279 163 693.039 162.3 692.559 161.74C692.119 161.18 691.479 160.78 690.639 160.52C692.199 160 692.979 158.92 692.979 157.32C692.979 156.12 692.559 155.18 691.739 154.48C690.899 153.78 689.779 153.44 688.419 153.44ZM700.411 153.44C699.051 153.44 697.951 153.82 697.111 154.6C696.231 155.38 695.711 156.46 695.591 157.84H697.211C697.311 156.88 697.631 156.14 698.191 155.62C698.731 155.1 699.471 154.86 700.431 154.86C701.351 154.86 702.091 155.08 702.611 155.56C703.091 156 703.351 156.62 703.351 157.42C703.351 158.22 703.091 158.84 702.591 159.28C702.091 159.7 701.371 159.92 700.411 159.92H699.311V161.2H700.471C701.471 161.2 702.231 161.42 702.791 161.9C703.351 162.38 703.631 163.04 703.631 163.9C703.631 164.74 703.331 165.44 702.771 166C702.151 166.58 701.331 166.88 700.311 166.88C699.411 166.88 698.671 166.62 698.071 166.14C697.371 165.56 696.991 164.7 696.951 163.58H695.291C695.411 165.18 695.971 166.4 696.991 167.24C697.851 167.92 698.951 168.28 700.311 168.28C701.791 168.28 702.991 167.86 703.911 167.02C704.811 166.2 705.271 165.14 705.271 163.84C705.271 163 705.031 162.3 704.551 161.74C704.111 161.18 703.471 160.78 702.631 160.52C704.191 160 704.971 158.92 704.971 157.32C704.971 156.12 704.551 155.18 703.731 154.48C702.891 153.78 701.771 153.44 700.411 153.44ZM708.903 165.62C708.543 165.62 708.263 165.74 708.043 165.98C707.803 166.22 707.683 166.5 707.683 166.86C707.683 167.2 707.803 167.48 708.043 167.72C708.263 167.96 708.543 168.08 708.903 168.08C709.223 168.08 709.523 167.96 709.763 167.72C710.003 167.48 710.123 167.2 710.123 166.86C710.123 166.5 710.003 166.22 709.763 165.98C709.523 165.74 709.223 165.62 708.903 165.62ZM717.677 153.44C716.317 153.44 715.217 153.82 714.377 154.6C713.497 155.38 712.977 156.46 712.857 157.84H714.477C714.577 156.88 714.897 156.14 715.457 155.62C715.997 155.1 716.737 154.86 717.697 154.86C718.617 154.86 719.357 155.08 719.877 155.56C720.357 156 720.617 156.62 720.617 157.42C720.617 158.22 720.357 158.84 719.857 159.28C719.357 159.7 718.637 159.92 717.677 159.92H716.577V161.2H717.737C718.737 161.2 719.497 161.42 720.057 161.9C720.617 162.38 720.897 163.04 720.897 163.9C720.897 164.74 720.597 165.44 720.037 166C719.417 166.58 718.597 166.88 717.577 166.88C716.677 166.88 715.937 166.62 715.337 166.14C714.637 165.56 714.257 164.7 714.217 163.58H712.557C712.677 165.18 713.237 166.4 714.257 167.24C715.117 167.92 716.217 168.28 717.577 168.28C719.057 168.28 720.257 167.86 721.177 167.02C722.077 166.2 722.537 165.14 722.537 163.84C722.537 163 722.297 162.3 721.817 161.74C721.377 161.18 720.737 160.78 719.897 160.52C721.457 160 722.237 158.92 722.237 157.32C722.237 156.12 721.817 155.18 720.997 154.48C720.157 153.78 719.037 153.44 717.677 153.44ZM738.309 160.18C737.229 160.18 736.409 160.56 735.849 161.36C735.329 162.04 735.089 162.96 735.089 164.1C735.089 165.22 735.329 166.12 735.849 166.84C736.409 167.6 737.229 168 738.309 168C739.369 168 740.189 167.6 740.769 166.84C741.269 166.14 741.529 165.22 741.529 164.1C741.529 162.96 741.269 162.04 740.769 161.36C740.189 160.56 739.369 160.18 738.309 160.18ZM736.589 153.44L728.569 168.28H729.869L737.869 153.44H736.589ZM728.149 153.72C727.069 153.72 726.249 154.1 725.689 154.9C725.169 155.58 724.929 156.5 724.929 157.64C724.929 158.76 725.169 159.66 725.689 160.38C726.249 161.14 727.069 161.54 728.149 161.54C729.209 161.54 730.029 161.14 730.609 160.38C731.109 159.68 731.369 158.76 731.369 157.64C731.369 156.5 731.109 155.58 730.609 154.9C730.029 154.1 729.209 153.72 728.149 153.72ZM738.309 161.26C738.909 161.26 739.349 161.54 739.649 162.12C739.889 162.6 740.029 163.26 740.029 164.1C740.029 164.92 739.889 165.56 739.649 166.04C739.349 166.62 738.909 166.92 738.309 166.92C737.689 166.92 737.249 166.62 736.969 166.06C736.709 165.58 736.589 164.92 736.589 164.1C736.589 163.24 736.709 162.58 736.969 162.1C737.249 161.54 737.689 161.26 738.309 161.26ZM728.149 154.8C728.749 154.8 729.189 155.08 729.469 155.66C729.729 156.14 729.869 156.8 729.869 157.64C729.869 158.46 729.729 159.1 729.489 159.58C729.189 160.16 728.749 160.46 728.149 160.46C727.529 160.46 727.089 160.16 726.809 159.6C726.549 159.12 726.429 158.46 726.429 157.64C726.429 156.78 726.549 156.12 726.809 155.64C727.089 155.08 727.529 154.8 728.149 154.8Z" fill="#276EF9"/>
<rect opacity="0.3" x="962.162" y="120" width="461.838" height="80" fill="#C9D8FD"/>
<path d="M1169.5 153.44C1168.14 153.44 1167.04 153.82 1166.2 154.6C1165.32 155.38 1164.8 156.46 1164.68 157.84H1166.3C1166.4 156.88 1166.72 156.14 1167.28 155.62C1167.82 155.1 1168.56 154.86 1169.52 154.86C1170.44 154.86 1171.18 155.08 1171.7 155.56C1172.18 156 1172.44 156.62 1172.44 157.42C1172.44 158.22 1172.18 158.84 1171.68 159.28C1171.18 159.7 1170.46 159.92 1169.5 159.92H1168.4V161.2H1169.56C1170.56 161.2 1171.32 161.42 1171.88 161.9C1172.44 162.38 1172.72 163.04 1172.72 163.9C1172.72 164.74 1172.42 165.44 1171.86 166C1171.24 166.58 1170.42 166.88 1169.4 166.88C1168.5 166.88 1167.76 166.62 1167.16 166.14C1166.46 165.56 1166.08 164.7 1166.04 163.58H1164.38C1164.5 165.18 1165.06 166.4 1166.08 167.24C1166.94 167.92 1168.04 168.28 1169.4 168.28C1170.88 168.28 1172.08 167.86 1173 167.02C1173.9 166.2 1174.36 165.14 1174.36 163.84C1174.36 163 1174.12 162.3 1173.64 161.74C1173.2 161.18 1172.56 160.78 1171.72 160.52C1173.28 160 1174.06 158.92 1174.06 157.32C1174.06 156.12 1173.64 155.18 1172.82 154.48C1171.98 153.78 1170.86 153.44 1169.5 153.44ZM1181.49 153.44C1180.13 153.44 1179.03 153.82 1178.19 154.6C1177.31 155.38 1176.79 156.46 1176.67 157.84H1178.29C1178.39 156.88 1178.71 156.14 1179.27 155.62C1179.81 155.1 1180.55 154.86 1181.51 154.86C1182.43 154.86 1183.17 155.08 1183.69 155.56C1184.17 156 1184.43 156.62 1184.43 157.42C1184.43 158.22 1184.17 158.84 1183.67 159.28C1183.17 159.7 1182.45 159.92 1181.49 159.92H1180.39V161.2H1181.55C1182.55 161.2 1183.31 161.42 1183.87 161.9C1184.43 162.38 1184.71 163.04 1184.71 163.9C1184.71 164.74 1184.41 165.44 1183.85 166C1183.23 166.58 1182.41 166.88 1181.39 166.88C1180.49 166.88 1179.75 166.62 1179.15 166.14C1178.45 165.56 1178.07 164.7 1178.03 163.58H1176.37C1176.49 165.18 1177.05 166.4 1178.07 167.24C1178.93 167.92 1180.03 168.28 1181.39 168.28C1182.87 168.28 1184.07 167.86 1184.99 167.02C1185.89 166.2 1186.35 165.14 1186.35 163.84C1186.35 163 1186.11 162.3 1185.63 161.74C1185.19 161.18 1184.55 160.78 1183.71 160.52C1185.27 160 1186.05 158.92 1186.05 157.32C1186.05 156.12 1185.63 155.18 1184.81 154.48C1183.97 153.78 1182.85 153.44 1181.49 153.44ZM1189.98 165.62C1189.62 165.62 1189.34 165.74 1189.12 165.98C1188.88 166.22 1188.76 166.5 1188.76 166.86C1188.76 167.2 1188.88 167.48 1189.12 167.72C1189.34 167.96 1189.62 168.08 1189.98 168.08C1190.3 168.08 1190.6 167.96 1190.84 167.72C1191.08 167.48 1191.2 167.2 1191.2 166.86C1191.2 166.5 1191.08 166.22 1190.84 165.98C1190.6 165.74 1190.3 165.62 1189.98 165.62ZM1198.76 153.44C1197.4 153.44 1196.3 153.82 1195.46 154.6C1194.58 155.38 1194.06 156.46 1193.94 157.84H1195.56C1195.66 156.88 1195.98 156.14 1196.54 155.62C1197.08 155.1 1197.82 154.86 1198.78 154.86C1199.7 154.86 1200.44 155.08 1200.96 155.56C1201.44 156 1201.7 156.62 1201.7 157.42C1201.7 158.22 1201.44 158.84 1200.94 159.28C1200.44 159.7 1199.72 159.92 1198.76 159.92H1197.66V161.2H1198.82C1199.82 161.2 1200.58 161.42 1201.14 161.9C1201.7 162.38 1201.98 163.04 1201.98 163.9C1201.98 164.74 1201.68 165.44 1201.12 166C1200.5 166.58 1199.68 166.88 1198.66 166.88C1197.76 166.88 1197.02 166.62 1196.42 166.14C1195.72 165.56 1195.34 164.7 1195.3 163.58H1193.64C1193.76 165.18 1194.32 166.4 1195.34 167.24C1196.2 167.92 1197.3 168.28 1198.66 168.28C1200.14 168.28 1201.34 167.86 1202.26 167.02C1203.16 166.2 1203.62 165.14 1203.62 163.84C1203.62 163 1203.38 162.3 1202.9 161.74C1202.46 161.18 1201.82 160.78 1200.98 160.52C1202.54 160 1203.32 158.92 1203.32 157.32C1203.32 156.12 1202.9 155.18 1202.08 154.48C1201.24 153.78 1200.12 153.44 1198.76 153.44ZM1219.39 160.18C1218.31 160.18 1217.49 160.56 1216.93 161.36C1216.41 162.04 1216.17 162.96 1216.17 164.1C1216.17 165.22 1216.41 166.12 1216.93 166.84C1217.49 167.6 1218.31 168 1219.39 168C1220.45 168 1221.27 167.6 1221.85 166.84C1222.35 166.14 1222.61 165.22 1222.61 164.1C1222.61 162.96 1222.35 162.04 1221.85 161.36C1221.27 160.56 1220.45 160.18 1219.39 160.18ZM1217.67 153.44L1209.65 168.28H1210.95L1218.95 153.44H1217.67ZM1209.23 153.72C1208.15 153.72 1207.33 154.1 1206.77 154.9C1206.25 155.58 1206.01 156.5 1206.01 157.64C1206.01 158.76 1206.25 159.66 1206.77 160.38C1207.33 161.14 1208.15 161.54 1209.23 161.54C1210.29 161.54 1211.11 161.14 1211.69 160.38C1212.19 159.68 1212.45 158.76 1212.45 157.64C1212.45 156.5 1212.19 155.58 1211.69 154.9C1211.11 154.1 1210.29 153.72 1209.23 153.72ZM1219.39 161.26C1219.99 161.26 1220.43 161.54 1220.73 162.12C1220.97 162.6 1221.11 163.26 1221.11 164.1C1221.11 164.92 1220.97 165.56 1220.73 166.04C1220.43 166.62 1219.99 166.92 1219.39 166.92C1218.77 166.92 1218.33 166.62 1218.05 166.06C1217.79 165.58 1217.67 164.92 1217.67 164.1C1217.67 163.24 1217.79 162.58 1218.05 162.1C1218.33 161.54 1218.77 161.26 1219.39 161.26ZM1209.23 154.8C1209.83 154.8 1210.27 155.08 1210.55 155.66C1210.81 156.14 1210.95 156.8 1210.95 157.64C1210.95 158.46 1210.81 159.1 1210.57 159.58C1210.27 160.16 1209.83 160.46 1209.23 160.46C1208.61 160.46 1208.17 160.16 1207.89 159.6C1207.63 159.12 1207.51 158.46 1207.51 157.64C1207.51 156.78 1207.63 156.12 1207.89 155.64C1208.17 155.08 1208.61 154.8 1209.23 154.8Z" fill="#276EF9"/>
<rect opacity="0.2" x="721.622" y="16" width="702.378" height="80" fill="#C9D8FD"/>
<path d="M332.201 49.72L331.441 57.6H333.001C333.281 57.04 333.721 56.6 334.281 56.32C334.821 56.02 335.421 55.88 336.101 55.88C337.141 55.88 337.961 56.18 338.541 56.82C339.141 57.44 339.461 58.32 339.461 59.46C339.461 60.46 339.121 61.28 338.481 61.92C337.821 62.56 337.001 62.88 336.001 62.88C335.121 62.88 334.381 62.66 333.821 62.24C333.181 61.76 332.821 61.06 332.741 60.16H331.121C331.221 61.46 331.761 62.5 332.761 63.26C333.641 63.94 334.721 64.28 335.981 64.28C337.381 64.28 338.581 63.84 339.541 62.98C340.561 62.06 341.081 60.88 341.081 59.44C341.081 57.9 340.641 56.7 339.801 55.82C338.961 54.96 337.861 54.54 336.501 54.54C335.841 54.54 335.241 54.64 334.681 54.88C334.061 55.12 333.541 55.48 333.141 55.96H333.061L333.541 51.18H340.501V49.72H332.201ZM348.093 49.44C346.373 49.44 345.093 50.18 344.233 51.7C343.473 52.98 343.093 54.7 343.093 56.86C343.093 59.02 343.473 60.74 344.233 62.02C345.093 63.52 346.373 64.28 348.093 64.28C349.793 64.28 351.073 63.52 351.953 62.02C352.713 60.74 353.093 59.02 353.093 56.86C353.093 54.7 352.713 52.98 351.953 51.7C351.073 50.18 349.793 49.44 348.093 49.44ZM348.093 50.84C349.373 50.84 350.293 51.52 350.853 52.9C351.253 53.86 351.473 55.18 351.473 56.86C351.473 58.52 351.253 59.84 350.853 60.82C350.293 62.18 349.373 62.88 348.093 62.88C346.813 62.88 345.893 62.18 345.333 60.82C344.933 59.84 344.733 58.52 344.733 56.86C344.733 55.18 344.933 53.86 345.333 52.9C345.893 51.52 346.813 50.84 348.093 50.84ZM368.865 56.18C367.785 56.18 366.965 56.56 366.405 57.36C365.885 58.04 365.645 58.96 365.645 60.1C365.645 61.22 365.885 62.12 366.405 62.84C366.965 63.6 367.785 64 368.865 64C369.925 64 370.745 63.6 371.325 62.84C371.825 62.14 372.085 61.22 372.085 60.1C372.085 58.96 371.825 58.04 371.325 57.36C370.745 56.56 369.925 56.18 368.865 56.18ZM367.145 49.44L359.125 64.28H360.425L368.425 49.44H367.145ZM358.705 49.72C357.625 49.72 356.805 50.1 356.245 50.9C355.725 51.58 355.485 52.5 355.485 53.64C355.485 54.76 355.725 55.66 356.245 56.38C356.805 57.14 357.625 57.54 358.705 57.54C359.765 57.54 360.585 57.14 361.165 56.38C361.665 55.68 361.925 54.76 361.925 53.64C361.925 52.5 361.665 51.58 361.165 50.9C360.585 50.1 359.765 49.72 358.705 49.72ZM368.865 57.26C369.465 57.26 369.905 57.54 370.205 58.12C370.445 58.6 370.585 59.26 370.585 60.1C370.585 60.92 370.445 61.56 370.205 62.04C369.905 62.62 369.465 62.92 368.865 62.92C368.245 62.92 367.805 62.62 367.525 62.06C367.265 61.58 367.145 60.92 367.145 60.1C367.145 59.24 367.265 58.58 367.525 58.1C367.805 57.54 368.245 57.26 368.865 57.26ZM358.705 50.8C359.305 50.8 359.745 51.08 360.025 51.66C360.285 52.14 360.425 52.8 360.425 53.64C360.425 54.46 360.285 55.1 360.045 55.58C359.745 56.16 359.305 56.46 358.705 56.46C358.085 56.46 357.645 56.16 357.365 55.6C357.105 55.12 356.985 54.46 356.985 53.64C356.985 52.78 357.105 52.12 357.365 51.64C357.645 51.08 358.085 50.8 358.705 50.8Z" fill="#276EF9"/>
<path d="M1053.82 49.72L1053.06 57.6H1054.62C1054.9 57.04 1055.34 56.6 1055.9 56.32C1056.44 56.02 1057.04 55.88 1057.72 55.88C1058.76 55.88 1059.58 56.18 1060.16 56.82C1060.76 57.44 1061.08 58.32 1061.08 59.46C1061.08 60.46 1060.74 61.28 1060.1 61.92C1059.44 62.56 1058.62 62.88 1057.62 62.88C1056.74 62.88 1056 62.66 1055.44 62.24C1054.8 61.76 1054.44 61.06 1054.36 60.16H1052.74C1052.84 61.46 1053.38 62.5 1054.38 63.26C1055.26 63.94 1056.34 64.28 1057.6 64.28C1059 64.28 1060.2 63.84 1061.16 62.98C1062.18 62.06 1062.7 60.88 1062.7 59.44C1062.7 57.9 1062.26 56.7 1061.42 55.82C1060.58 54.96 1059.48 54.54 1058.12 54.54C1057.46 54.54 1056.86 54.64 1056.3 54.88C1055.68 55.12 1055.16 55.48 1054.76 55.96H1054.68L1055.16 51.18H1062.12V49.72H1053.82ZM1069.71 49.44C1067.99 49.44 1066.71 50.18 1065.85 51.7C1065.09 52.98 1064.71 54.7 1064.71 56.86C1064.71 59.02 1065.09 60.74 1065.85 62.02C1066.71 63.52 1067.99 64.28 1069.71 64.28C1071.41 64.28 1072.69 63.52 1073.57 62.02C1074.33 60.74 1074.71 59.02 1074.71 56.86C1074.71 54.7 1074.33 52.98 1073.57 51.7C1072.69 50.18 1071.41 49.44 1069.71 49.44ZM1069.71 50.84C1070.99 50.84 1071.91 51.52 1072.47 52.9C1072.87 53.86 1073.09 55.18 1073.09 56.86C1073.09 58.52 1072.87 59.84 1072.47 60.82C1071.91 62.18 1070.99 62.88 1069.71 62.88C1068.43 62.88 1067.51 62.18 1066.95 60.82C1066.55 59.84 1066.35 58.52 1066.35 56.86C1066.35 55.18 1066.55 53.86 1066.95 52.9C1067.51 51.52 1068.43 50.84 1069.71 50.84ZM1090.49 56.18C1089.41 56.18 1088.59 56.56 1088.03 57.36C1087.51 58.04 1087.27 58.96 1087.27 60.1C1087.27 61.22 1087.51 62.12 1088.03 62.84C1088.59 63.6 1089.41 64 1090.49 64C1091.55 64 1092.37 63.6 1092.95 62.84C1093.45 62.14 1093.71 61.22 1093.71 60.1C1093.71 58.96 1093.45 58.04 1092.95 57.36C1092.37 56.56 1091.55 56.18 1090.49 56.18ZM1088.77 49.44L1080.75 64.28H1082.05L1090.05 49.44H1088.77ZM1080.33 49.72C1079.25 49.72 1078.43 50.1 1077.87 50.9C1077.35 51.58 1077.11 52.5 1077.11 53.64C1077.11 54.76 1077.35 55.66 1077.87 56.38C1078.43 57.14 1079.25 57.54 1080.33 57.54C1081.39 57.54 1082.21 57.14 1082.79 56.38C1083.29 55.68 1083.55 54.76 1083.55 53.64C1083.55 52.5 1083.29 51.58 1082.79 50.9C1082.21 50.1 1081.39 49.72 1080.33 49.72ZM1090.49 57.26C1091.09 57.26 1091.53 57.54 1091.83 58.12C1092.07 58.6 1092.21 59.26 1092.21 60.1C1092.21 60.92 1092.07 61.56 1091.83 62.04C1091.53 62.62 1091.09 62.92 1090.49 62.92C1089.87 62.92 1089.43 62.62 1089.15 62.06C1088.89 61.58 1088.77 60.92 1088.77 60.1C1088.77 59.24 1088.89 58.58 1089.15 58.1C1089.43 57.54 1089.87 57.26 1090.49 57.26ZM1080.33 50.8C1080.93 50.8 1081.37 51.08 1081.65 51.66C1081.91 52.14 1082.05 52.8 1082.05 53.64C1082.05 54.46 1081.91 55.1 1081.67 55.58C1081.37 56.16 1080.93 56.46 1080.33 56.46C1079.71 56.46 1079.27 56.16 1078.99 55.6C1078.73 55.12 1078.61 54.46 1078.61 53.64C1078.61 52.78 1078.73 52.12 1078.99 51.64C1079.27 51.08 1079.71 50.8 1080.33 50.8Z" fill="#276EF9"/>
</svg>
