<svg width="150" height="28" viewBox="0 0 150 28" fill="none" xmlns="http://www.w3.org/2000/svg">
<path fill-rule="evenodd" clip-rule="evenodd" d="M64.6411 14.2843V0H71.9474V14.2843C71.9474 15.7613 72.2497 17.3473 73.0412 18.4561C73.6328 19.2849 75.0614 20.5648 78.0823 20.5994C81.1033 20.5648 82.5318 19.2849 83.1235 18.4561C83.9148 17.3473 84.2174 15.7613 84.2174 14.2843V0H91.5237V14.2843C91.5237 16.4709 91.1263 19.8663 89.0403 22.7886C86.9205 25.7583 83.4603 27.6864 78.5818 27.8464L78.5819 27.8545C78.4138 27.8571 78.2473 27.8577 78.0823 27.8566C77.9175 27.8577 77.751 27.8571 77.5828 27.8545L77.583 27.8464C72.7045 27.6864 69.2442 25.7583 67.1245 22.7886C65.0385 19.8663 64.6411 16.4709 64.6411 14.2843ZM95.28 4.24934V7.31834V25.222C95.28 26.6774 96.4579 27.8571 97.9108 27.8571H102.586H120.027V20.5388H102.586V7.31834H120.027V0H97.9108C96.4579 0 95.28 1.17979 95.28 2.63514V4.24934ZM123.798 0V27.8571H133.568C144.011 27.8571 150 22.751 150 13.8467V13.7661C150 4.8893 144.23 0 133.751 0H123.798ZM131.104 21.1746H134.936C139.893 21.1746 142.645 18.8689 142.645 13.9342V13.8533C142.645 8.91692 139.893 6.61231 134.936 6.61231H131.104V21.1746ZM115.313 18.1779H107.3V10.1513H115.313V18.1779Z" fill="white"/>
<path fill-rule="evenodd" clip-rule="evenodd" d="M29.8314 0.00891113H26.5169V3.23381H19.5746V5.88284H26.5087C26.5087 5.88284 25.1668 10.8217 19.5746 13.0464V16.0573C24.0697 14.6543 26.7139 11.7012 28.1742 9.36134C29.635 11.7012 32.2792 14.6543 36.774 16.0573V13.0464C31.1816 10.8217 29.8399 5.88284 29.8399 5.88284H36.774V3.23381H29.8314V0.00891113Z" fill="white"/>
<path fill-rule="evenodd" clip-rule="evenodd" d="M55.6213 3.23394H48.6795V0.0090332H45.3643V3.23394H38.4216V5.88296H45.3557C45.3557 5.88296 44.0144 10.8219 38.4216 13.0463V16.0574C42.9165 14.6539 45.5606 11.7013 47.0223 9.36147C48.4831 11.7013 51.1268 14.6539 55.6213 16.0574V13.0463C50.0286 10.8219 48.6878 5.88296 48.6878 5.88296H55.6213V3.23394Z" fill="white"/>
<mask id="mask0_1500_28171" style="mask-type:alpha" maskUnits="userSpaceOnUse" x="0" y="0" width="56" height="28">
<path fill-rule="evenodd" clip-rule="evenodd" d="M0 27.8571H55.6214V0H0V27.8571Z" fill="white"/>
</mask>
<g mask="url(#mask0_1500_28171)">
<path fill-rule="evenodd" clip-rule="evenodd" d="M0 4.23794H3.25538V0.948364H0V4.23794Z" fill="white"/>
<path fill-rule="evenodd" clip-rule="evenodd" d="M0 9.87134H3.25538V6.58203H0V9.87134Z" fill="white"/>
<path fill-rule="evenodd" clip-rule="evenodd" d="M0 16.0575H3.25538V12.7682H0V16.0575Z" fill="white"/>
<path fill-rule="evenodd" clip-rule="evenodd" d="M8.87119 13.4202L11.3802 9.26051L13.8897 13.4202H8.87119ZM17.9942 14.3972L14.879 9.23378H17.9138V6.57968H13.0443V4.24598H17.4271V1.60871H13.0443V0H9.71709V1.60871H5.33427V4.24598H9.71709V6.57968H4.84652V9.23378H7.88211L4.76723 14.3972C4.55755 14.744 4.55143 15.1475 4.74966 15.5005C4.9479 15.8546 5.29542 16.0574 5.69855 16.0574H17.0626C17.4668 16.0574 17.8132 15.8546 18.0115 15.5005C18.2097 15.1475 18.2033 14.744 17.9942 14.3972Z" fill="white"/>
<path fill-rule="evenodd" clip-rule="evenodd" d="M2.32004 21.0865V27.8417H0.000244141V21.0865V20.9203V20.2909V19.958C0.000244141 19.4075 0.489323 18.9594 1.08936 18.9594H1.45258H1.91452H8.23156V21.0865H2.32004Z" fill="white"/>
<path fill-rule="evenodd" clip-rule="evenodd" d="M4.03809 25.6696H6.65218V23.0283H4.03809V25.6696Z" fill="white"/>
<path fill-rule="evenodd" clip-rule="evenodd" d="M18.1659 27.8572V18.9708H21.3425C24.6865 18.9708 26.5276 20.5306 26.5276 23.3624V23.3881C26.5276 26.2282 24.6165 27.8572 21.284 27.8572H18.1659ZM20.4932 25.7368H21.7153C23.2975 25.7368 24.1754 25.0011 24.1754 23.4268V23.4012C24.1754 21.8264 23.2975 21.0915 21.7153 21.0915H20.4932V25.7368Z" fill="white"/>
<path fill-rule="evenodd" clip-rule="evenodd" d="M37.5496 27.8572V18.9708H40.7259C44.0699 18.9708 45.911 20.5306 45.911 23.3624V23.3881C45.911 26.2282 43.9999 27.8572 40.6671 27.8572H37.5496ZM39.8766 25.7368H41.0995C42.6812 25.7368 43.5593 25.0011 43.5593 23.4268V23.4012C43.5593 21.8264 42.6812 21.0915 41.0995 21.0915H39.8766V25.7368Z" fill="white"/>
<path fill-rule="evenodd" clip-rule="evenodd" d="M7.27979 27.8416L10.871 20.1799H13.4404L17.0318 27.8416H14.5069L12.1559 22.8274L9.77015 27.8416H7.27979Z" fill="white"/>
<path fill-rule="evenodd" clip-rule="evenodd" d="M10.5171 20.9355L11.1558 19.575C11.3306 19.2001 11.7108 18.9708 12.1557 18.9708C12.6006 18.9708 12.9806 19.2001 13.1562 19.575L13.7938 20.9355C13.9436 21.2532 13.9111 21.5907 13.7031 21.8793C13.4958 22.1685 13.1711 22.3291 12.7941 22.3291H11.5176C11.1406 22.3291 10.8162 22.1685 10.6081 21.8793C10.4006 21.5907 10.3679 21.2532 10.5171 20.9355Z" fill="white"/>
<path fill-rule="evenodd" clip-rule="evenodd" d="M26.5361 27.8416L30.1281 20.1799H32.6967L36.2887 27.8416H33.7635L31.4128 22.8274L29.0268 27.8416H26.5361Z" fill="white"/>
<path fill-rule="evenodd" clip-rule="evenodd" d="M29.7739 20.9355L30.4123 19.575C30.5876 19.2001 30.9679 18.9708 31.4122 18.9708C31.8572 18.9708 32.2379 19.2001 32.413 19.575L33.0511 20.9355C33.2001 21.2532 33.1671 21.5907 32.9596 21.8793C32.7518 22.1685 32.4285 22.3291 32.0506 22.3291H30.7747C30.3971 22.3291 30.0722 22.1685 29.8647 21.8793C29.6576 21.5907 29.6249 21.2532 29.7739 20.9355Z" fill="white"/>
<path fill-rule="evenodd" clip-rule="evenodd" d="M45.8684 27.8416L49.4607 20.1799H52.0287L55.6212 27.8416H53.0955L50.7454 22.8274L48.359 27.8416H45.8684Z" fill="white"/>
<path fill-rule="evenodd" clip-rule="evenodd" d="M49.106 20.9355L49.7441 19.575C49.9197 19.2001 50.3 18.9708 50.7443 18.9708C51.1892 18.9708 51.5703 19.2001 51.7456 19.575L52.3832 20.9355C52.5322 21.2532 52.5003 21.5907 52.2919 21.8793C52.0844 22.1685 51.7603 22.3291 51.3827 22.3291H50.1073C49.7294 22.3291 49.4048 22.1685 49.1973 21.8793C48.9902 21.5907 48.957 21.2532 49.106 20.9355Z" fill="white"/>
</g>
</svg>
