<svg width="15" height="15" viewBox="0 0 15 15" fill="none" xmlns="http://www.w3.org/2000/svg">
<path fill-rule="evenodd" clip-rule="evenodd" d="M15 0V11C15 13.2091 13.2091 15 11 15H0L15 0Z" fill="#E9E9E9"/>
<path d="M7.66814 10.1444C7.80893 9.94331 8.07091 9.87753 8.28626 9.97664L8.3645 10.0216L9.64649 10.541L11.7984 7.90791C11.9392 7.70684 12.2011 7.64107 12.4165 7.74017L12.4947 7.78513C12.6958 7.92592 12.7616 8.1879 12.6625 8.40325L12.6175 8.48149L10.2079 11.9228C10.0671 12.1238 9.80515 12.1896 9.5898 12.0905L9.51156 12.0455L7.79092 10.8407C7.56472 10.6824 7.50975 10.3706 7.66814 10.1444Z" fill="white"/>
</svg>
